<svg width="24" height="24" viewBox="0 0 24 24" fill="none" xmlns="http://www.w3.org/2000/svg">
<rect width="24" height="24" rx="12" fill="#8FAF95" fill-opacity="0.3"/>
<g clip-path="url(#clip0_3094_2685)">
<path d="M4.31995 6.04199C4.31995 6.04199 5.04219 7.32199 5.04219 8.13991L4.32411 10.1735C4.32411 10.3636 4.45243 10.4282 4.60443 10.3194L6.96699 8.62471C7.44411 8.97703 8.37883 9.44455 9.05755 9.82855V11.2001L10.5727 10.3373C11.0591 10.4477 11.5526 10.5178 12.0809 10.5178C15.2646 10.5178 17.8492 8.45223 17.8492 8.10791C17.8492 7.80871 15.9055 6.20935 13.3049 5.79655L10.4134 4.32007V5.91591C9.05787 6.29159 7.67131 7.07079 6.96731 7.59079L4.59611 5.89607C4.44443 5.78695 4.31995 5.85191 4.31995 6.04199ZM15.2803 8.52711C14.9055 8.52711 14.6012 8.21895 14.6012 7.83815C14.6012 7.45735 14.9055 7.14951 15.2803 7.14951C15.6556 7.14951 15.958 7.45735 15.958 7.83815C15.958 8.21895 15.6556 8.52711 15.2803 8.52711ZM19.6799 14.5217C19.6799 14.3313 19.5555 14.2663 19.4038 14.3757L17.0441 16.0711C16.3401 15.5511 14.9676 14.7719 13.6102 14.3965V12.8001L10.7071 14.2762C8.10555 14.6887 6.15643 16.2887 6.15643 16.5879C6.15643 16.9322 8.73851 18.9988 11.9219 18.9988C12.4499 18.9988 12.9551 18.9271 13.4409 18.8164L14.9673 19.6801V18.3089C15.6451 17.9239 16.5689 17.457 17.0438 17.1034L19.4003 18.7985C19.5535 18.9089 19.6783 18.8429 19.6783 18.6541C19.6783 18.6541 18.959 17.4385 18.959 16.6199C18.9593 15.8013 19.6799 14.5217 19.6799 14.5217ZM9.18875 16.5658C8.81371 16.5658 8.51067 16.2583 8.51067 15.8769C8.51067 15.4967 8.81371 15.1895 9.18875 15.1895C9.56315 15.1895 9.86715 15.497 9.86715 15.8769C9.86715 16.2583 9.56347 16.5658 9.18875 16.5658Z" fill="#647B68"/>
</g>
<defs>
<clipPath id="clip0_3094_2685">
<rect width="16" height="16" fill="white" transform="translate(4 4)"/>
</clipPath>
</defs>
</svg>
