<svg width="24" height="24" viewBox="0 0 24 24" fill="none" xmlns="http://www.w3.org/2000/svg">
<rect width="24" height="24" rx="12" fill="#8FAF95" fill-opacity="0.3"/>
<path d="M11.7222 17.6622V18.8787C11.7222 18.9596 11.6786 18.9961 11.5977 18.9961L11.4577 19C11.3721 19 11.3317 18.9634 11.3286 18.8818V17.6404C11.3278 17.6353 11.3261 17.6304 11.3234 17.626C11.3207 17.6216 11.3172 17.6178 11.313 17.6147C11.3071 17.6065 11.2982 17.6009 11.2881 17.5992C10.886 17.5626 10.5656 17.4631 10.1199 17.323C7.87201 16.6191 6.33195 14.8504 6.03638 12.6173C5.7237 10.2699 7.48466 8.50892 9.08772 7.01709C9.24328 6.8693 9.35684 6.69974 9.48596 6.53718C9.48596 6.5294 9.48985 6.5294 9.49685 6.52629H9.50774C9.51552 6.52629 9.51941 6.52629 9.52329 6.53407L9.52641 6.54496C9.65163 7.08631 9.66252 7.47677 10.1673 7.90457C10.5803 8.25069 11.6825 9.13895 11.019 9.70286C10.9672 9.74791 10.9054 9.78006 10.8388 9.79669C10.7721 9.81332 10.7025 9.81395 10.6356 9.79853C10.178 9.69589 9.76904 9.44027 9.47632 9.07387C9.18359 8.70747 9.02457 8.2522 9.0255 7.78323C9.0197 7.7759 9.01185 7.77048 9.00294 7.76767C8.99549 7.76513 8.98752 7.7645 8.97977 7.76586C8.97202 7.76722 8.96474 7.77052 8.95861 7.77545C7.66978 8.93283 6.56762 10.2077 6.46806 11.9764C6.34284 14.232 8.17769 16.196 10.3112 16.9878C10.599 17.0983 10.9303 17.1465 11.2438 17.2235C11.2544 17.2261 11.2654 17.2265 11.2761 17.2246C11.2868 17.2228 11.297 17.2187 11.306 17.2126C11.3211 17.1995 11.3306 17.1811 11.3325 17.1613V8.29503C11.3325 8.28677 11.3308 8.27859 11.3276 8.27098C11.3244 8.26337 11.3197 8.25647 11.3138 8.25069C11.1221 8.0744 10.9379 7.89015 10.7616 7.69845C10.0608 6.88408 10.7903 5.69326 11.3986 5.05234C11.4158 5.03404 11.4371 5.02016 11.4608 5.0119C11.4947 4.99917 11.5316 4.99659 11.567 5.00446C11.6023 5.01233 11.6346 5.03032 11.6599 5.05623C12.2238 5.69715 12.703 6.43451 12.4969 7.3041C12.423 7.61678 12.0916 7.93412 11.8334 8.14413C11.799 8.17311 11.7714 8.20918 11.7523 8.24987C11.7333 8.29055 11.7232 8.33488 11.7229 8.37981V17.1465C11.7229 17.1574 11.7229 17.1683 11.7307 17.1799L11.7556 17.2056C11.766 17.2134 11.7771 17.2188 11.789 17.2219C11.8009 17.2253 11.8135 17.2259 11.8256 17.2235C12.1212 17.1613 12.4269 17.106 12.71 17.0026C14.8552 16.2108 16.7157 14.2351 16.5912 11.9616C16.4948 10.2411 15.367 8.86283 14.0556 7.76145C14.0514 7.75951 14.0469 7.7585 14.0424 7.7585C14.0378 7.7585 14.0333 7.75951 14.0291 7.76145C14.0249 7.76271 14.0211 7.76514 14.0182 7.76845L14.0105 7.78323C14.0125 8.18116 13.9014 8.57148 13.6902 8.90872C13.4789 9.24595 13.1762 9.51624 12.8173 9.68808C12.1391 10.049 11.5829 9.56674 11.9399 8.91027C12.2277 8.37592 12.78 8.06246 13.0825 7.71634C13.4069 7.34455 13.4287 6.98286 13.5064 6.55585C13.5101 6.52992 13.521 6.52629 13.5391 6.54496C13.8492 6.89031 14.2941 7.33729 14.8738 7.8859C16.2039 9.13895 17.3387 10.9707 16.9926 12.8125C16.4948 15.4586 14.523 17.1426 11.7673 17.6147C11.7408 17.6178 11.726 17.6365 11.7229 17.6622" fill="#647B68"/>
<path d="M11.7222 17.6622V18.8787C11.7222 18.9596 11.6786 18.9961 11.5977 18.9961L11.4577 19C11.3721 19 11.3317 18.9634 11.3286 18.8818V17.6404C11.3278 17.6353 11.3261 17.6304 11.3234 17.626C11.3207 17.6216 11.3172 17.6178 11.313 17.6147C11.3071 17.6065 11.2982 17.6009 11.2881 17.5992C10.886 17.5626 10.5656 17.4631 10.1199 17.323C7.87201 16.6191 6.33195 14.8504 6.03638 12.6173C5.7237 10.2699 7.48466 8.50892 9.08772 7.01709C9.24328 6.8693 9.35684 6.69974 9.48596 6.53718C9.48596 6.5294 9.48985 6.5294 9.49685 6.52629H9.50774C9.51552 6.52629 9.51941 6.52629 9.52329 6.53407L9.52641 6.54496C9.65163 7.08631 9.66252 7.47677 10.1673 7.90457C10.5803 8.25069 11.6825 9.13895 11.019 9.70286C10.9672 9.74791 10.9054 9.78006 10.8388 9.79669C10.7721 9.81332 10.7025 9.81395 10.6356 9.79853C10.178 9.69589 9.76904 9.44027 9.47632 9.07387C9.18359 8.70747 9.02457 8.2522 9.0255 7.78323C9.0197 7.7759 9.01185 7.77048 9.00294 7.76767C8.99549 7.76513 8.98752 7.7645 8.97977 7.76586C8.97202 7.76722 8.96474 7.77052 8.95861 7.77545C7.66978 8.93283 6.56762 10.2077 6.46806 11.9764C6.34284 14.232 8.17769 16.196 10.3112 16.9878C10.599 17.0983 10.9303 17.1465 11.2438 17.2235C11.2544 17.2261 11.2654 17.2265 11.2761 17.2246C11.2868 17.2228 11.297 17.2187 11.306 17.2126C11.3211 17.1995 11.3306 17.1811 11.3325 17.1613V8.29503C11.3325 8.28677 11.3308 8.27859 11.3276 8.27098C11.3244 8.26337 11.3197 8.25647 11.3138 8.25069C11.1221 8.0744 10.9379 7.89015 10.7616 7.69845C10.0608 6.88408 10.7903 5.69326 11.3986 5.05234C11.4158 5.03404 11.4371 5.02016 11.4608 5.0119C11.4947 4.99917 11.5316 4.99659 11.567 5.00446C11.6023 5.01233 11.6346 5.03032 11.6599 5.05623C12.2238 5.69715 12.703 6.43451 12.4969 7.3041C12.423 7.61678 12.0916 7.93412 11.8334 8.14413C11.799 8.17311 11.7714 8.20918 11.7523 8.24987C11.7333 8.29055 11.7232 8.33488 11.7229 8.37981V17.1465C11.7229 17.1574 11.7229 17.1683 11.7307 17.1799L11.7556 17.2056C11.766 17.2134 11.7771 17.2188 11.789 17.2219C11.8009 17.2253 11.8135 17.2259 11.8256 17.2235C12.1212 17.1613 12.4269 17.106 12.71 17.0026C14.8552 16.2108 16.7157 14.2351 16.5912 11.9616C16.4948 10.2411 15.367 8.86283 14.0556 7.76145C14.0514 7.75951 14.0469 7.7585 14.0424 7.7585C14.0378 7.7585 14.0333 7.75951 14.0291 7.76145C14.0249 7.76271 14.0211 7.76514 14.0182 7.76845L14.0105 7.78323C14.0125 8.18116 13.9014 8.57148 13.6902 8.90872C13.4789 9.24595 13.1762 9.51624 12.8173 9.68808C12.1391 10.049 11.5829 9.56674 11.9399 8.91027C12.2277 8.37592 12.78 8.06246 13.0825 7.71634C13.4069 7.34455 13.4287 6.98286 13.5064 6.55585C13.5101 6.52992 13.521 6.52629 13.5391 6.54496C13.8492 6.89031 14.2941 7.33729 14.8738 7.8859C16.2039 9.13895 17.3387 10.9707 16.9926 12.8125C16.4948 15.4586 14.523 17.1426 11.7673 17.6147C11.7408 17.6178 11.726 17.6365 11.7229 17.6622" stroke="#647B68" stroke-width="0.2"/>
<path d="M14.2912 9.27518C14.4125 10.5212 13.8999 11.8404 12.4299 11.9952C12.2442 12.0138 12.0993 11.9869 11.9951 11.9143C11.5712 11.6265 11.9733 11.0182 12.3124 10.8051C13.0202 10.3478 13.7599 9.94954 14.2577 9.26818C14.2764 9.24329 14.2875 9.24588 14.2912 9.27596M10.7164 11.996C9.16853 11.8855 8.67851 10.5399 8.74851 9.26896C8.74851 9.2324 8.76407 9.2324 8.78585 9.26118C9.28675 9.9542 10.1416 10.4046 10.875 10.9125C11.1701 11.1178 11.2805 11.3817 11.2064 11.7043C11.1519 11.9329 10.9559 12.0107 10.7164 11.996ZM10.7086 14.3029C9.09541 14.0665 8.70418 12.913 8.74851 11.5464C8.74851 11.4847 8.76692 11.4795 8.80374 11.5308C9.26109 12.2464 9.96811 12.563 10.6985 13.0787C10.923 13.2347 11.0666 13.3626 11.1294 13.4621C11.3285 13.7717 11.2585 14.3838 10.7094 14.3022M14.2951 11.579C14.4172 12.8904 13.8789 14.173 12.3202 14.2944C11.8893 14.3317 11.712 13.8969 11.8854 13.5905C12.0215 13.3439 12.2175 13.1448 12.4641 12.99C13.0498 12.6322 13.9233 12.1608 14.2258 11.5674C14.2632 11.4896 14.2875 11.4932 14.299 11.5783L14.2951 11.579ZM10.938 16.4691C9.26575 16.5127 8.64973 15.1422 8.76407 13.7787C8.76822 13.7315 8.78299 13.7263 8.8084 13.7631C9.30231 14.4274 9.951 14.7735 10.6207 15.2122C10.8945 15.3965 11.2219 15.6509 11.2445 15.9744C11.2554 16.1557 11.1823 16.3066 11.0267 16.4357C11.0024 16.455 10.9729 16.4667 10.9419 16.4691H10.938ZM13.7242 15.85C13.5245 16.0723 13.2742 16.2433 12.9945 16.3484C12.7148 16.4534 12.4138 16.4895 12.1172 16.4536C12.0537 16.4443 11.996 16.4115 11.9554 16.3618C11.5828 15.8679 12.055 15.4774 12.4828 15.1904C13.0902 14.7844 13.8533 14.3792 14.2515 13.767L14.2624 13.7561C14.2664 13.7554 14.2705 13.7558 14.2743 13.7571C14.2781 13.7585 14.2815 13.7608 14.2842 13.7639L14.2919 13.7748C14.3651 14.4717 14.2103 15.3226 13.7242 15.85Z" fill="#647B68"/>
<path d="M14.2912 9.27518C14.4125 10.5212 13.8999 11.8404 12.4299 11.9952C12.2442 12.0138 12.0993 11.9869 11.9951 11.9143C11.5712 11.6265 11.9733 11.0182 12.3124 10.8051C13.0202 10.3478 13.7599 9.94954 14.2577 9.26818C14.2764 9.24329 14.2875 9.24588 14.2912 9.27596M10.7086 14.3029C9.09541 14.0665 8.70418 12.913 8.74851 11.5464C8.74851 11.4847 8.76692 11.4795 8.80374 11.5308C9.26109 12.2464 9.96811 12.563 10.6985 13.0787C10.923 13.2347 11.0666 13.3626 11.1294 13.4621C11.3285 13.7717 11.2585 14.3838 10.7094 14.3022M10.7164 11.996C9.16853 11.8855 8.67851 10.5399 8.74851 9.26896C8.74851 9.2324 8.76407 9.2324 8.78585 9.26118C9.28675 9.9542 10.1416 10.4046 10.875 10.9125C11.1701 11.1178 11.2805 11.3817 11.2064 11.7043C11.1519 11.9329 10.9559 12.0107 10.7164 11.996ZM14.2951 11.579C14.4172 12.8904 13.8789 14.173 12.3202 14.2944C11.8893 14.3317 11.712 13.8969 11.8854 13.5905C12.0215 13.3439 12.2175 13.1448 12.4641 12.99C13.0498 12.6322 13.9233 12.1608 14.2258 11.5674C14.2632 11.4896 14.2875 11.4932 14.299 11.5783L14.2951 11.579ZM10.938 16.4691C9.26575 16.5127 8.64973 15.1422 8.76407 13.7787C8.76822 13.7315 8.78299 13.7263 8.8084 13.7631C9.30231 14.4274 9.951 14.7735 10.6207 15.2122C10.8945 15.3965 11.2219 15.6509 11.2445 15.9744C11.2554 16.1557 11.1823 16.3066 11.0267 16.4357C11.0024 16.455 10.9729 16.4667 10.9419 16.4691H10.938ZM13.7242 15.85C13.5245 16.0723 13.2742 16.2433 12.9945 16.3484C12.7148 16.4534 12.4138 16.4895 12.1172 16.4536C12.0537 16.4443 11.996 16.4115 11.9554 16.3618C11.5828 15.8679 12.055 15.4774 12.4828 15.1904C13.0902 14.7844 13.8533 14.3792 14.2515 13.767L14.2624 13.7561C14.2664 13.7554 14.2705 13.7558 14.2743 13.7571C14.2781 13.7585 14.2815 13.7608 14.2842 13.7639L14.2919 13.7748C14.3651 14.4717 14.2103 15.3226 13.7242 15.85Z" stroke="#647B68" stroke-width="0.2"/>
</svg>
