<svg width="24" height="24" viewBox="0 0 24 24" fill="none" xmlns="http://www.w3.org/2000/svg">
<rect width="24" height="24" rx="12" fill="#8FAF95" fill-opacity="0.3"/>
<path d="M17 16.5C17 16.6354 16.9527 16.7526 16.858 16.8516C16.7634 16.9505 16.6513 17 16.5217 17H13.0693C13.0743 17.0885 13.0892 17.3164 13.1141 17.6836C13.139 18.0508 13.1515 18.3333 13.1515 18.5312C13.1515 18.6615 13.1067 18.7721 13.017 18.8633C12.9273 18.9544 12.8202 19 12.6957 19H10.3043C10.1798 19 10.0727 18.9544 9.98302 18.8633C9.89334 18.7721 9.84851 18.6615 9.84851 18.5312C9.84851 18.3333 9.86096 18.0508 9.88587 17.6836C9.91078 17.3164 9.92572 17.0885 9.93071 17H6.47826C6.34873 17 6.23664 16.9505 6.14198 16.8516C6.04733 16.7526 6 16.6354 6 16.5C6 16.3646 6.04733 16.2474 6.14198 16.1484L9.14606 13H7.43478C7.30525 13 7.19316 12.9505 7.09851 12.8516C7.00385 12.7526 6.95652 12.6354 6.95652 12.5C6.95652 12.3646 7.00385 12.2474 7.09851 12.1484L10.1026 9H8.63043C8.50091 9 8.38881 8.95052 8.29416 8.85156C8.1995 8.7526 8.15217 8.63542 8.15217 8.5C8.15217 8.36458 8.1995 8.2474 8.29416 8.14844L11.1637 5.14844C11.2584 5.04948 11.3705 5 11.5 5C11.6295 5 11.7416 5.04948 11.8363 5.14844L14.7058 8.14844C14.8005 8.2474 14.8478 8.36458 14.8478 8.5C14.8478 8.63542 14.8005 8.7526 14.7058 8.85156C14.6112 8.95052 14.4991 9 14.3696 9H12.8974L15.9015 12.1484C15.9962 12.2474 16.0435 12.3646 16.0435 12.5C16.0435 12.6354 15.9962 12.7526 15.9015 12.8516C15.8068 12.9505 15.6947 13 15.5652 13H13.8539L16.858 16.1484C16.9527 16.2474 17 16.3646 17 16.5Z" fill="#647B68"/>
</svg>
