<svg width="24" height="24" viewBox="0 0 24 24" fill="none" xmlns="http://www.w3.org/2000/svg">
<rect width="24" height="24" rx="12" fill="#8FAF95" fill-opacity="0.3"/>
<path d="M14 5.33325C14.1699 5.33344 14.3334 5.3985 14.4569 5.51515C14.5805 5.6318 14.6548 5.79122 14.6648 5.96085C14.6747 6.13048 14.6196 6.2975 14.5105 6.42781C14.4014 6.55811 14.2467 6.64185 14.078 6.66192L14 6.66659C13.538 6.66659 13.1133 7.12925 12.8727 7.70125C13.2839 7.49195 13.7335 7.36855 14.194 7.33859L14.3707 7.33325C16.3587 7.33325 18 9.36859 18 11.5466C18 13.9113 17.596 15.4546 16.3847 17.2653C15.2567 18.7659 13.6567 19.1006 12.1113 18.0879C12.08 18.0679 12.0438 18.0567 12.0066 18.0555C11.9694 18.0543 11.9326 18.0632 11.9 18.0813C10.3433 19.0999 8.74333 18.7659 7.59333 17.2346C6.40467 15.4559 6 13.9119 6 11.5466L6.00267 11.3986C6.07467 9.27792 7.68667 7.33325 9.62933 7.33325C10.256 7.33325 10.864 7.52725 11.4213 7.86125C11.7007 6.56125 12.6333 5.33325 14 5.33325ZM9.31067 9.43592C8.404 10.0079 8 10.8093 8 11.9999C8 12.1767 8.07024 12.3463 8.19526 12.4713C8.32029 12.5963 8.48986 12.6666 8.66667 12.6666C8.84348 12.6666 9.01305 12.5963 9.13807 12.4713C9.2631 12.3463 9.33333 12.1767 9.33333 11.9999C9.33333 11.2499 9.52 10.8813 10.0227 10.5639C10.1722 10.4695 10.2782 10.3195 10.3172 10.147C10.3562 9.97446 10.3251 9.7935 10.2307 9.64392C10.1362 9.49434 9.98628 9.38839 9.81374 9.34938C9.64121 9.31037 9.46025 9.3415 9.31067 9.43592Z" fill="#647B68"/>
</svg>
