<svg width="24" height="24" viewBox="0 0 24 24" fill="none" xmlns="http://www.w3.org/2000/svg">
<rect width="24" height="24" rx="12" fill="#8FAF95" fill-opacity="0.3"/>
<path d="M5.83545 12.6667C5.83545 14.258 6.46759 15.7842 7.59281 16.9094C8.71803 18.0346 10.2442 18.6667 11.8354 18.6667C11.8354 15.3334 9.14878 12.6667 5.83545 12.6667ZM11.8354 7.66675C12.2775 7.66675 12.7014 7.84234 13.014 8.1549C13.3265 8.46746 13.5021 8.89139 13.5021 9.33341C13.5021 9.77544 13.3265 10.1994 13.014 10.5119C12.7014 10.8245 12.2775 11.0001 11.8354 11.0001C11.3934 11.0001 10.9695 10.8245 10.6569 10.5119C10.3444 10.1994 10.1688 9.77544 10.1688 9.33341C10.1688 8.89139 10.3444 8.46746 10.6569 8.1549C10.9695 7.84234 11.3934 7.66675 11.8354 7.66675ZM7.56878 10.8334C7.56878 11.2754 7.74438 11.6994 8.05694 12.0119C8.3695 12.3245 8.79342 12.5001 9.23545 12.5001C9.58878 12.5001 9.91545 12.3867 10.1688 12.2067V12.3334C10.1688 12.7754 10.3444 13.1994 10.6569 13.5119C10.9695 13.8245 11.3934 14.0001 11.8354 14.0001C12.2775 14.0001 12.7014 13.8245 13.014 13.5119C13.3265 13.1994 13.5021 12.7754 13.5021 12.3334V12.2067C13.7554 12.3867 14.0821 12.5001 14.4354 12.5001C14.8775 12.5001 15.3014 12.3245 15.614 12.0119C15.9265 11.6994 16.1021 11.2754 16.1021 10.8334C16.1021 10.1667 15.7088 9.60008 15.1488 9.33341C15.7088 9.06675 16.1021 8.49341 16.1021 7.83341C16.1021 7.39139 15.9265 6.96746 15.614 6.6549C15.3014 6.34234 14.8775 6.16675 14.4354 6.16675C14.0821 6.16675 13.7554 6.27341 13.5021 6.46008V6.33341C13.5021 5.89139 13.3265 5.46746 13.014 5.1549C12.7014 4.84234 12.2775 4.66675 11.8354 4.66675C11.3934 4.66675 10.9695 4.84234 10.6569 5.1549C10.3444 5.46746 10.1688 5.89139 10.1688 6.33341V6.46008C9.91545 6.27341 9.58878 6.16675 9.23545 6.16675C8.79342 6.16675 8.3695 6.34234 8.05694 6.6549C7.74438 6.96746 7.56878 7.39139 7.56878 7.83341C7.56878 8.49341 7.96212 9.06675 8.52212 9.33341C7.96212 9.60008 7.56878 10.1667 7.56878 10.8334ZM11.8354 18.6667C13.4267 18.6667 14.9529 18.0346 16.0781 16.9094C17.2033 15.7842 17.8354 14.258 17.8354 12.6667C14.5021 12.6667 11.8354 15.3334 11.8354 18.6667Z" fill="#647B68"/>
</svg>
