<svg width="24" height="24" viewBox="0 0 24 24" fill="none" xmlns="http://www.w3.org/2000/svg">
<rect width="24" height="24" rx="12" fill="#8FAF95" fill-opacity="0.3"/>
<path d="M6.66668 17.3333V11.0833L5.46668 11.9999L4.68335 10.9499L12.0167 5.33325L19.3333 10.9499L19.0667 11.2999C18.5667 10.9555 18.0167 10.7499 17.4167 10.6833C16.8167 10.6166 16.2333 10.6944 15.6667 10.9166C15 10.661 14.3138 10.6028 13.608 10.7419C12.9022 10.881 12.2829 11.217 11.75 11.7499C11.2171 12.2828 10.8809 12.9024 10.7413 13.6086C10.6018 14.3148 10.6602 15.0008 10.9167 15.6666C10.8056 15.9333 10.7333 16.2055 10.7 16.4833C10.6667 16.761 10.6611 17.0444 10.6833 17.3333H6.66668ZM15.6667 18.9166C15.2 19.2388 14.6862 19.375 14.1253 19.3253C13.5645 19.2755 13.0838 19.0504 12.6833 18.6499C12.2829 18.2495 12.058 17.769 12.0087 17.2086C11.9593 16.6481 12.0953 16.1341 12.4167 15.6666C12.0945 15.1999 11.9585 14.6861 12.0087 14.1253C12.0589 13.5644 12.2838 13.0837 12.6833 12.6833C13.0829 12.2828 13.5636 12.0579 14.1253 12.0086C14.6871 11.9593 15.2009 12.0953 15.6667 12.4166C16.1333 12.0944 16.6473 11.9584 17.2087 12.0086C17.77 12.0588 18.2505 12.2837 18.65 12.6833C19.0496 13.0828 19.2747 13.5635 19.3253 14.1253C19.376 14.687 19.2398 15.2008 18.9167 15.6666C19.2389 16.1333 19.3751 16.6473 19.3253 17.2086C19.2756 17.7699 19.0505 18.2504 18.65 18.6499C18.2496 19.0495 17.7691 19.2746 17.2087 19.3253C16.6482 19.3759 16.1342 19.2397 15.6667 18.9166ZM15.6667 16.4999C15.9 16.4999 16.0973 16.4193 16.2587 16.2579C16.42 16.0966 16.5005 15.8995 16.5 15.6666C16.4996 15.4337 16.4189 15.2364 16.258 15.0746C16.0971 14.9128 15.9 14.8324 15.6667 14.8333C15.4333 14.8341 15.236 14.9148 15.0747 15.0753C14.9133 15.2357 14.8329 15.4328 14.8333 15.6666C14.8338 15.9004 14.9145 16.0977 15.0753 16.2586C15.2362 16.4195 15.4333 16.4999 15.6667 16.4999Z" fill="#647B68"/>
</svg>
