<svg width="24" height="24" viewBox="0 0 24 24" fill="none" xmlns="http://www.w3.org/2000/svg">
<rect width="24" height="24" rx="12" fill="#8FAF95" fill-opacity="0.3"/>
<path d="M18.6667 5.66667V7C18.6667 8.23768 18.175 9.42466 17.2998 10.2998C16.4247 11.175 15.2377 11.6667 14 11.6667H13.3333V12.3333H16.6667V17C16.6667 17.3536 16.5262 17.6928 16.2761 17.9428C16.0261 18.1929 15.687 18.3333 15.3333 18.3333H10C9.64638 18.3333 9.30724 18.1929 9.05719 17.9428C8.80714 17.6928 8.66667 17.3536 8.66667 17V12.3333H12V10.3333C12 9.09566 12.4917 7.90867 13.3668 7.0335C14.242 6.15833 15.429 5.66667 16.6667 5.66667H18.6667ZM8.33333 5C9.13332 4.99935 9.92175 5.19092 10.6322 5.55858C11.3427 5.92624 11.9545 6.45923 12.416 7.11267C11.7119 8.03855 11.3315 9.17014 11.3333 10.3333V11H11C9.67392 11 8.40215 10.4732 7.46447 9.53554C6.52678 8.59785 6 7.32608 6 6V5H8.33333Z" fill="#647B68"/>
</svg>
