<svg width="24" height="24" viewBox="0 0 24 24" fill="none" xmlns="http://www.w3.org/2000/svg">
<rect width="24" height="24" rx="12" fill="#8FAF95" fill-opacity="0.3"/>
<g clip-path="url(#clip0_3094_2681)">
<path d="M18.9375 4.74194C18.5844 4.75069 18.2031 4.78788 17.8469 4.85663C17.3469 4.95288 16.8969 5.11694 16.6625 5.29038C16.6406 5.35944 16.6344 5.45413 16.6375 5.51819C16.6375 5.58382 16.6469 5.65507 16.6594 5.72694C17.075 5.41726 17.5844 5.23976 18.1 5.07194C17.6531 5.38663 17.2688 5.71726 16.9063 6.05601C17.1594 6.16757 17.4594 6.16913 17.6531 6.03194H17.6563C18.075 5.73069 18.6344 5.22694 18.9375 4.74288V4.74194ZM9.62813 4.85413C9.54376 4.85413 9.45313 4.86351 9.35938 4.88444C9.29688 5.19038 9.33438 5.46882 9.45001 5.69038C9.16876 5.57976 8.83126 5.59819 8.48751 5.88601C8.69688 6.59944 9.32814 6.91726 9.97814 6.59507C9.99689 6.89007 10.0063 7.18757 10.0063 7.48444C9.80313 7.26257 9.46876 7.06101 9.12188 7.07038C8.87813 7.07976 8.62501 7.19069 8.40313 7.47194C8.75313 8.12819 9.43438 8.30944 10.0031 7.86569C9.99688 8.18757 9.98126 8.50944 9.95626 8.83444C9.76563 8.57194 9.42501 8.32194 9.04688 8.32507C8.87813 8.32819 8.70313 8.38132 8.52813 8.50632C9.02813 8.64694 9.48438 8.84694 9.89376 9.11569C10.0469 9.21257 10.125 9.36257 10.1688 9.50944C10.2094 9.65632 10.2188 9.80944 10.2156 9.96569C10.2031 10.2844 10.1281 10.6188 10.0156 10.9032L9.97501 10.9969L9.88439 11.0438C9.82189 11.0782 9.75001 11.1126 9.68126 11.1469C9.61564 11.5469 9.54376 11.9501 9.46563 12.3563C9.00313 11.7938 8.53751 11.5876 8.07813 11.5844C6.90345 11.5719 5.75438 12.8719 4.68188 12.8938C6.13407 12.9969 8.39376 11.5157 9.18126 13.2563C9.76564 13.6907 10.3656 14.0438 10.9781 14.3126C11.0281 14.0188 11.1094 13.7094 11.2219 13.4344C11.2938 13.2594 11.375 13.0969 11.4781 12.9594C11.5813 12.8219 11.7063 12.6969 11.8969 12.6501C11.95 12.6344 12.0063 12.6219 12.0594 12.6094C11.8906 12.2813 11.9125 11.8407 12.1125 11.4719C12.3156 11.0938 12.6844 10.8313 13.0625 10.8032C13.45 10.2126 13.8563 9.63757 14.2844 9.07194C14.6156 9.77507 15.3469 9.90319 15.95 9.41257C15.7969 8.84694 15.3875 8.66882 14.9969 8.67819C14.8219 8.68132 14.65 8.72507 14.5031 8.78757C15.1188 7.99069 15.7781 7.22507 16.4844 6.48257C16.2281 6.36944 16.2094 6.28413 16.1438 6.02601C15.425 6.77569 14.7531 7.55632 14.125 8.35944C14.1094 8.85632 13.8281 9.30319 13.3531 9.39694H13.3469C13.0438 9.82194 12.75 10.2501 12.4688 10.6876C12.5406 10.2219 12.6125 9.74382 12.7 9.26882C12.4813 9.13132 12.3063 8.90007 12.2094 8.63132C11.9125 9.58444 11.7 10.5969 11.425 11.4719C11.3875 11.4657 11.3469 11.4626 11.3094 11.4626C10.8156 11.4594 10.3813 11.8876 10.2688 12.2094C10.6469 12.5344 11.0625 12.5969 11.4031 12.4469C11.275 12.6751 11.1438 12.9063 11.0188 13.1376C10.9063 13.0876 10.7906 13.0626 10.6813 13.0626C10.325 13.0594 10 13.2844 9.80313 13.5282C10.0188 12.5032 10.2125 11.4782 10.3531 10.4563C10.9281 10.7469 11.525 10.4907 11.7906 9.84382C11.5656 9.60944 11.3281 9.51569 11.1031 9.51257C10.8563 9.50944 10.6219 9.61882 10.4375 9.76569C10.4781 9.41257 10.5094 9.05944 10.5313 8.70632C11.1188 9.28444 11.8781 9.12819 12.2531 8.42194C12.0313 8.14069 11.7781 8.03132 11.5344 8.02194C11.1094 8.00944 10.7094 8.31257 10.5375 8.58757C10.5563 8.25319 10.5688 7.92194 10.5688 7.59069C11.2094 7.89069 11.825 7.57194 12.0313 6.86569C11.8063 6.67726 11.5844 6.60444 11.3813 6.60757C11.0438 6.61257 10.75 6.82476 10.5625 7.06726C10.5563 6.84694 10.5438 6.62663 10.5281 6.40694C11.2594 6.64788 11.85 6.21132 11.9188 5.44413C11.3 5.10257 10.825 5.42101 10.5781 5.81413C10.5219 5.37382 10.2344 4.85476 9.62813 4.85413ZM15.1906 5.28913C14.0406 5.47101 13.325 6.17288 12.825 7.10163L12.9 7.08288C13.0656 7.05163 13.225 7.06726 13.3688 7.12038C13.75 6.37632 14.3125 5.73319 15.1906 5.28913ZM19.3188 7.28132C17.8375 9.40319 15.8563 10.3063 13.9094 11.2876C14.075 11.6157 14.0531 12.0469 13.8563 12.4126V12.4157C15.9125 11.1407 18.0063 9.93132 19.3188 7.28132ZM16.5156 7.41882C16.0219 7.41257 15.5875 7.84694 15.475 8.16569C16.1281 8.72819 16.8906 8.50632 17.2031 7.75007C16.9781 7.51569 16.7406 7.42194 16.5156 7.41882ZM13.0469 7.63132C13.0344 7.63444 13.0219 7.63444 13.0094 7.63757C12.8125 7.67507 12.6344 7.95319 12.7063 8.32194C12.7781 8.69069 13.05 8.88444 13.2438 8.84382C13.4406 8.80632 13.6188 8.52819 13.5469 8.15944C13.4781 7.81257 13.2406 7.62194 13.0469 7.63132ZM6.65563 8.82507C6.60907 8.82507 6.55938 8.82819 6.5122 8.82819C6.80563 9.61882 7.12126 10.2938 7.78751 10.7001H7.79063C8.23438 10.9813 8.76563 10.9032 9.22501 10.7282L7.90001 9.63132L9.55313 10.5063C9.60001 10.2282 9.76251 9.85632 9.59376 9.59069H9.59063V9.58757C8.82501 9.09069 7.86251 8.83444 6.65563 8.82507ZM13.1219 11.3657C12.95 11.3719 12.7406 11.4907 12.6063 11.7376C12.4281 12.0688 12.5156 12.3907 12.6906 12.4844C12.9594 12.6001 13.2594 12.3282 13.3594 12.1469C13.5375 11.8157 13.45 11.4969 13.275 11.4001C13.2313 11.3751 13.1781 11.3657 13.1219 11.3657ZM13.025 13.0626C12.9781 13.0626 12.9281 13.0626 12.8813 13.0657C12.5938 13.0782 12.3125 13.1219 12.0375 13.1938H12.0344C12.0375 13.1938 11.9875 13.2157 11.9281 13.2969C11.8688 13.3782 11.8 13.5001 11.7438 13.6469C11.6594 13.8501 11.5938 14.0938 11.55 14.3219L13.55 14.0063L11.9281 14.6501C12.0969 14.9001 12.1438 15.0032 12.1844 15.1876C12.4438 15.3532 12.7188 15.4282 13.0656 15.3438C13.9281 15.1407 14.6063 14.4376 15.3156 13.6094C14.5031 13.2376 13.7469 13.0563 13.025 13.0626ZM8.73751 13.6219L8.45626 14.3376C9.47813 14.7876 10.35 15.3094 11.1844 15.8344L11.575 15.1282C10.5781 14.8219 9.63751 14.3063 8.73751 13.6219ZM8.34376 14.9032C7.69063 15.7563 6.90595 16.4969 6.00907 16.9313L6.25532 17.4376C7.29688 16.9313 8.15938 16.0907 8.86563 15.1501C8.69688 15.0657 8.52188 14.9813 8.34376 14.9032ZM8.97814 15.2063C8.24064 16.5219 7.53126 17.4594 6.7797 18.8344L7.27501 19.1032C8.00626 17.7626 8.71251 16.8219 9.47814 15.4688C9.31564 15.3813 9.14689 15.2938 8.97814 15.2063ZM9.79688 15.6501C9.02813 16.8282 8.47813 17.7907 7.93438 19.0344L8.44688 19.2594C8.98126 18.0407 9.51563 17.1094 10.2781 15.9344C10.1188 15.8376 9.95938 15.7407 9.79688 15.6501ZM10.5156 16.0782C10.0344 16.8907 9.98126 17.8594 9.89688 18.5969L10.4531 18.6626C10.5438 17.9063 10.6125 17.0313 10.9938 16.3782L10.5156 16.0782Z" fill="#647B68" stroke="#647B68" stroke-width="0.2"/>
</g>
<defs>
<clipPath id="clip0_3094_2681">
<rect width="16" height="16" fill="white" transform="translate(4 4)"/>
</clipPath>
</defs>
</svg>
