<svg width="24" height="24" viewBox="0 0 24 24" fill="none" xmlns="http://www.w3.org/2000/svg">
<rect width="24" height="24" rx="12" fill="#E78C23" fill-opacity="0.3"/>
<path d="M18.5 11.7309C18.5 12.8019 18.1049 13.8291 17.4017 14.5865C16.6984 15.3439 15.7446 15.7693 14.75 15.7693H14V18.4617H10V13.077H9.25C8.25544 13.077 7.30161 12.6516 6.59835 11.8942C5.89509 11.1368 5.5 10.1096 5.5 9.03857C5.5 8.68155 5.6317 8.33915 5.86612 8.0867C6.10054 7.83425 6.41848 7.69242 6.75 7.69242C7.08152 7.69242 7.39946 7.83425 7.63388 8.0867C7.8683 8.33915 8 8.68155 8 9.03857C8 9.21535 8.03233 9.3904 8.09515 9.55372C8.15797 9.71705 8.25004 9.86545 8.36612 9.99045C8.60054 10.2429 8.91848 10.3847 9.25 10.3847H10V7.69242C10 7.12118 10.2107 6.57335 10.5858 6.16942C10.9609 5.7655 11.4696 5.53857 12 5.53857C12.5304 5.53857 13.0391 5.7655 13.4142 6.16942C13.7893 6.57335 14 7.12118 14 7.69242V13.077H14.75C14.9142 13.077 15.0767 13.0422 15.2284 12.9746C15.38 12.9069 15.5178 12.8078 15.6339 12.6828C15.75 12.5578 15.842 12.4094 15.9048 12.246C15.9677 12.0827 16 11.9077 16 11.7309C16 11.3739 16.1317 11.0315 16.3661 10.779C16.6005 10.5266 16.9185 10.3847 17.25 10.3847C17.5815 10.3847 17.8995 10.5266 18.1339 10.779C18.3683 11.0315 18.5 11.3739 18.5 11.7309Z" fill="#A26219"/>
</svg>
