<svg width="24" height="24" viewBox="0 0 24 24" fill="none" xmlns="http://www.w3.org/2000/svg">
<rect width="24" height="24" rx="12" fill="#8FAF95" fill-opacity="0.3"/>
<path d="M10.864 5.91211C11.12 5.91211 11.336 5.95211 11.512 6.02411C12.512 6.46411 12.864 7.81611 12.872 9.20011C13.344 8.54411 14.592 7.36811 15.6 7.36811C16.608 7.36811 17.952 7.95211 18.424 10.2081C17.52 9.68811 16.488 9.45611 15.504 9.45611C14.496 9.45611 13.544 9.71211 12.872 10.1681C13.192 10.0801 13.56 10.0401 13.936 10.0401C15.048 10.0401 16.256 10.4001 16.656 11.0881C17.2 12.0161 17.032 13.7921 16.048 14.4001C15.936 12.7201 14.696 11.1041 13.272 11.1041C12.92 11.1041 12.568 11.2001 12.208 11.4081C10.4 12.4961 9.59998 15.6481 9.59998 19.2001H5.59998C5.59998 14.7761 8.96798 11.4801 11.744 10.5681C11.296 10.4961 10.808 10.4481 10.288 10.4481C8.87998 10.4481 7.23998 10.8001 5.59998 12.0001C6.20798 9.63211 7.82398 8.72011 9.35198 8.72011C10.352 8.72011 11.312 9.12011 11.912 9.75211C11.384 7.96011 9.91998 7.46411 8.64798 7.46411C8.00798 7.46411 7.40798 7.59211 7.00798 7.74411C7.73598 6.71211 9.65598 5.91211 10.864 5.91211ZM14.4 13.2001C14.4 12.5361 13.864 12.0001 13.2 12.0001C12.536 12.0001 12 12.5361 12 13.2001C12 13.8641 12.536 14.4001 13.2 14.4001C13.864 14.4001 14.4 13.8641 14.4 13.2001Z" fill="#647B68"/>
</svg>
