<svg width="24" height="24" viewBox="0 0 24 24" fill="none" xmlns="http://www.w3.org/2000/svg">
<rect width="24" height="24" rx="12" fill="#8FAF95" fill-opacity="0.3"/>
<g clip-path="url(#clip0_3097_2765)">
<path d="M8.57833 7.59725C8.87739 7.76278 9.15852 8.00047 9.39199 8.26534C9.73052 8.6494 10.2854 9.67715 9.90724 10.0219C9.75949 9.58756 9.24777 8.95237 8.96999 8.63722C8.69221 8.32206 8.29567 8.04659 7.32192 7.74425C6.34817 7.44193 5.16105 8.36622 4.93067 9.35378C4.83961 9.74425 4.94661 10.2554 5.19583 10.8015C5.44505 11.3475 5.82733 11.9207 6.22658 12.4364C6.32267 12.5604 6.4207 12.6829 6.52064 12.8038C7.11386 12.9374 7.69074 13.2859 8.26467 13.636C8.91974 14.0356 9.57467 14.4464 10.1752 14.6343C10.3466 13.4983 11.0236 12.4687 12.0966 11.5727L12.4455 11.2812L12.5505 11.7236C12.7768 12.6769 12.9052 13.759 12.507 14.845C13.7637 14.7459 15.3254 14.744 16.6227 15.18C17.093 14.7639 17.413 14.3679 17.1621 13.8125C15.5555 14.2128 14.1429 13.1339 13.716 12.4659C14.8365 13.1587 15.5557 13.5616 16.7294 13.3249C17.6476 13.0924 18.5005 13.0306 18.79 12.0941C19.3063 10.4087 19.241 8.16656 18.1332 6.89868C17.582 6.26787 16.8856 5.77925 16.1707 5.6169C15.4558 5.45453 14.7209 5.58918 14.09 6.11987C13.4591 6.65056 13.1539 7.16306 13.0385 7.62115C12.9231 8.07928 13.2955 9.0329 13.3523 9.27347C12.7573 8.78459 12.3375 8.10122 12.4931 7.48378C12.6327 6.92934 12.9888 6.40265 13.459 5.99165C13.2408 5.54072 12.8367 5.26409 12.3742 5.1025C10.449 4.5785 8.17205 5.28622 8.57833 7.59725ZM12.101 12.3232C11.2299 13.1522 10.7537 14.0432 10.6953 15.0026L10.6759 15.3202L10.3631 15.2621C9.51767 15.1049 8.72442 14.5753 7.97177 14.1162C7.46302 13.8059 6.97671 13.5379 6.54311 13.4032C6.87733 13.8968 7.25092 14.444 7.73374 14.936C8.39592 15.6108 9.19196 16.1108 10.2287 16.0549L10.676 16.0307C10.2494 17.0136 9.95927 18.0986 9.9628 18.9689L10.4442 19.0614C10.657 17.933 10.863 17.1206 11.3786 16.3455C13.012 16.5771 14.7305 16.2013 15.987 15.5886C14.7402 15.2893 13.229 15.3308 12.0891 15.4467L11.5763 15.4988L11.81 15.0394C12.2725 14.1302 12.2639 13.2125 12.101 12.3232H12.101Z" fill="#647B68"/>
</g>
<defs>
<clipPath id="clip0_3097_2765">
<rect width="16" height="16" fill="white" transform="translate(4 4)"/>
</clipPath>
</defs>
</svg>
