<svg width="24" height="24" viewBox="0 0 24 24" fill="none" xmlns="http://www.w3.org/2000/svg">
<rect width="24" height="24" rx="12" fill="#8FAF95" fill-opacity="0.3"/>
<path fill-rule="evenodd" clip-rule="evenodd" d="M11.655 7.05431C11.2683 6.68631 10.713 6.50331 9.98899 6.68097C9.811 6.43826 9.57221 6.24673 9.29666 6.12564C8.85133 5.93431 8.29233 5.93831 7.66199 6.30064C7.00266 6.60831 6.68499 7.06064 6.59733 7.53531C6.53799 7.85797 6.58966 8.16397 6.67466 8.40531C6.11533 8.89464 5.94699 9.45331 6.02733 9.97964C6.09699 10.435 6.34566 10.824 6.58966 11.088C6.54691 11.2715 6.5426 11.462 6.57699 11.6473C6.68033 11.574 6.72933 11.54 6.84166 11.4943C7.02499 11.4196 7.17499 11.411 7.34166 11.411C7.86666 11.411 8.17033 11.472 8.67099 11.611C8.95473 11.6868 9.2272 11.7998 9.48133 11.947L9.57599 11.9063C9.69501 11.8547 9.82649 11.839 9.95433 11.861L11.1253 12.0633C11.0802 11.8216 11.0542 11.5767 11.0477 11.331C11.0351 10.7465 11.1848 10.1699 11.4804 9.66546C11.7759 9.16101 12.2056 8.74844 12.7217 8.47364C12.5868 8.33267 12.4234 8.22219 12.2423 8.14964C12.1657 7.79864 11.9887 7.37197 11.655 7.05431ZM8.37966 7.42664C8.4189 7.40722 8.46158 7.39572 8.50527 7.39279C8.54896 7.38987 8.5928 7.39558 8.63427 7.40961C8.67575 7.42363 8.71406 7.44569 8.74702 7.47452C8.77997 7.50335 8.80692 7.53839 8.82633 7.57764L9.08999 8.11097L9.62766 7.53531C9.68873 7.47418 9.77116 7.43916 9.85755 7.43763C9.94395 7.43609 10.0276 7.46817 10.0908 7.52709C10.154 7.58602 10.1918 7.66718 10.1963 7.75347C10.2009 7.83976 10.1717 7.92444 10.115 7.98964L9.40599 8.74897L9.67366 9.28931L10.1173 8.88597C10.1831 8.82965 10.2683 8.80116 10.3548 8.80653C10.4412 8.81191 10.5222 8.85074 10.5805 8.91478C10.6388 8.97883 10.6699 9.06307 10.6672 9.14965C10.6645 9.23624 10.6282 9.31837 10.566 9.37864L9.98099 9.91031L10.333 10.6216C10.3715 10.7008 10.3771 10.792 10.3486 10.8753C10.3201 10.9586 10.2598 11.0273 10.1809 11.0663C10.102 11.1053 10.0108 11.1115 9.92733 11.0835C9.84385 11.0555 9.77482 10.9957 9.73533 10.917L9.37033 10.1793L8.71566 10.3116C8.63094 10.3248 8.54443 10.3047 8.4741 10.2557C8.40376 10.2067 8.35501 10.1325 8.33798 10.0485C8.32094 9.96445 8.33693 9.8771 8.38262 9.80457C8.42831 9.73203 8.50019 9.67989 8.58333 9.65897L9.06466 9.56164L8.79933 9.02597L7.78633 9.17831C7.74222 9.18681 7.69685 9.1863 7.65295 9.17683C7.60904 9.16736 7.56751 9.14911 7.53083 9.12318C7.49415 9.09725 7.4631 9.06418 7.43952 9.02595C7.41595 8.98772 7.40034 8.94512 7.39364 8.9007C7.38695 8.85629 7.38929 8.81098 7.40054 8.7675C7.41179 8.72401 7.43172 8.68325 7.45912 8.64766C7.48651 8.61207 7.52082 8.58238 7.55998 8.56038C7.59914 8.53838 7.64234 8.52453 7.68699 8.51964L8.48899 8.39897L8.22866 7.87264C8.18964 7.79346 8.18363 7.70203 8.21194 7.61842C8.24025 7.5348 8.30056 7.46584 8.37966 7.42664Z" fill="#647B68"/>
<path fill-rule="evenodd" clip-rule="evenodd" d="M12.0454 12.2317L11.876 12.1987C11.8157 12.0342 11.7717 11.8642 11.7447 11.691L11.7397 11.671C11.7057 11.532 11.683 11.4097 11.681 11.3177C11.6738 10.9609 11.742 10.6067 11.8812 10.2781C12.0204 9.9495 12.2274 9.65403 12.4887 9.41103C12.5092 9.3917 12.5299 9.37492 12.551 9.3607C13.2227 8.7607 14.162 8.65636 14.8894 9.2517C14.881 8.43436 15.2127 7.6357 16.016 7.17236L16.2977 7.6597C15.6174 8.05203 15.3644 8.78636 15.477 9.57136C17.0287 9.06136 18.2364 10.529 17.783 12.2187C17.6428 12.7373 17.3464 13.2001 16.934 13.5444L16.7307 13.4734C16.1284 13.2644 15.37 13.0114 14.764 12.8444C14.1747 12.6817 13.4164 12.5134 12.8097 12.3867C12.5552 12.3335 12.3005 12.2818 12.0454 12.2317ZM16.518 10.662C16.6048 10.6452 16.6946 10.6635 16.7679 10.7129C16.8411 10.7622 16.8918 10.8387 16.9087 10.9254C16.9697 11.2291 16.9459 11.5437 16.8399 11.8347C16.7339 12.1258 16.5497 12.382 16.3077 12.5754C16.2391 12.6311 16.1512 12.6572 16.0633 12.6481C15.9754 12.639 15.8947 12.5953 15.839 12.5267C15.7833 12.4581 15.7572 12.3702 15.7663 12.2823C15.7754 12.1944 15.8191 12.1137 15.8877 12.058C16.0357 11.9406 16.1483 11.7845 16.213 11.607C16.2777 11.4295 16.2921 11.2375 16.2544 11.0524C16.2377 10.9657 16.2561 10.8761 16.3055 10.803C16.3548 10.7299 16.4312 10.6793 16.5177 10.6624M7.41204 17.9994C8.41204 17.9437 9.03071 17.6594 9.41204 17.243C9.56371 17.4464 9.81804 17.5644 10.0934 17.521C10.4384 17.4666 10.7826 17.4076 11.126 17.344V15.7824H11.8694V17.2004C12.8094 17.0104 13.9527 16.7494 15.213 16.3984V15.4114H15.9564V16.1847C16.464 16.0337 16.987 15.8687 17.52 15.6887C17.659 15.6463 17.7807 15.5604 17.8671 15.4437C17.9536 15.3269 18.0002 15.1855 18.0002 15.0402C18.0002 14.8949 17.9536 14.7535 17.8671 14.6367C17.7807 14.52 17.659 14.4341 17.52 14.3917C16.272 13.9713 15.0064 13.6051 13.7267 13.294V15.4114H12.9837V13.119C11.7537 12.8397 10.747 12.6624 10.0934 12.559C9.9652 12.5384 9.83381 12.5534 9.71362 12.6025C9.59343 12.6516 9.48908 12.7329 9.41204 12.8374C9.03071 12.4207 8.41204 12.1364 7.41204 12.0807C7.36351 12.0784 7.31501 12.0861 7.26958 12.1034C7.22415 12.1206 7.18275 12.147 7.14795 12.1809C7.11316 12.2148 7.08571 12.2555 7.06732 12.3005C7.04893 12.3455 7.03998 12.3938 7.04104 12.4424C7.04971 13.0467 7.08671 13.5267 7.21271 13.901C6.80438 14.0557 6.41938 14.3677 6.06738 14.8374C5.97738 14.9574 5.97738 15.123 6.06738 15.243C6.41638 15.7087 6.79838 16.0197 7.20271 16.1754C7.09538 16.5387 7.05271 17.0154 7.04171 17.6367C7.04052 17.6853 7.04933 17.7336 7.0676 17.7786C7.08587 17.8236 7.11321 17.8644 7.14791 17.8984C7.18261 17.9324 7.22393 17.959 7.26932 17.9763C7.3147 17.9937 7.36317 18.0015 7.41171 17.9994M8.14471 14.342L7.47571 14.5954C7.29038 14.6654 7.08238 14.8024 6.86238 15.04C7.08004 15.2754 7.28604 15.412 7.46971 15.4827L8.10904 15.729L7.91504 16.3854C7.85804 16.5787 7.81971 16.8434 7.79938 17.2147C8.51604 17.1047 8.81871 16.839 8.97504 16.5974C9.20004 16.2497 9.26771 15.7424 9.26771 15.04C9.26771 14.3377 9.20004 13.8307 8.97504 13.483C8.81838 13.241 8.51504 12.9754 7.79738 12.865C7.81638 13.225 7.85404 13.4777 7.91671 13.6647L8.14471 14.342Z" fill="#647B68"/>
</svg>
