<svg width="24" height="24" viewBox="0 0 24 24" fill="none" xmlns="http://www.w3.org/2000/svg">
<rect width="24" height="24" rx="12" fill="#8FAF95" fill-opacity="0.3"/>
<g clip-path="url(#clip0_3096_2739)">
<path d="M9.23126 5.80029C8.15939 5.94623 7.22814 6.59529 6.53501 7.42498C5.89001 8.19373 5.46751 9.11561 5.33533 9.84998C7.53126 10.7094 9.69064 11.1187 12 10.0062C11.8031 8.56248 11.2094 6.69936 9.23126 5.80029ZM15.2813 7.46248C13.725 8.03748 13.25 9.17186 13.0781 10.0875C14.9125 10.7812 16.6438 10.5281 18.3938 9.97811C18.2688 9.54061 17.9469 8.99373 17.4656 8.52811C16.9125 7.99061 16.1563 7.56248 15.2813 7.46248ZM15.7625 11.0625C15.5969 11.0687 15.4281 11.0719 15.2594 11.0687L14.325 15.575C14.4688 15.7125 14.5938 15.8406 14.7031 15.9781C14.8281 16.1344 14.9281 16.3031 15.0156 16.4969C15.1594 16.2125 15.3313 15.9187 15.5281 15.6187L15.7625 11.0625ZM8.53439 11.2219C8.39064 12.2187 8.33126 13.2125 8.37814 14.2062C9.05314 14.7625 9.50001 15.2625 9.83439 15.9969C9.90626 15.8187 9.98439 15.6406 10.0625 15.4656C9.70001 14.1031 9.42189 12.7094 9.34689 11.2375C9.07501 11.2469 8.80314 11.2406 8.53439 11.2219ZM18 13.3781C17.6125 13.8156 17.2219 14.275 16.8594 14.7406C16.1031 15.7 15.4719 16.6781 15.25 17.3937L14.9469 18.3687L14.7063 17.375C14.5781 16.8406 14.4656 16.5812 14.2656 16.3281C14.1344 16.1656 13.9344 15.9812 13.6875 15.7625C13.6875 16.0781 13.6719 16.3719 13.5969 16.65C13.4719 17.0969 13.1813 17.4937 12.6406 17.9031L12.4156 18.0719L12.2469 17.8469C11.5188 16.8719 11.4563 15.3375 11.6156 13.9187C10.9031 14.9094 10.4688 15.8156 10.1063 16.875L9.83126 17.6844L9.57189 16.8687C9.19064 15.6562 8.74376 15.1781 7.70001 14.3812C7.77189 14.8062 7.84689 15.2344 7.86876 15.6719C7.90314 16.3437 7.80314 17.0437 7.37189 17.7437L6.96658 18.3969L6.85314 17.6375C6.63126 16.1531 6.18251 15.4937 5.4247 14.8375C5.91533 16.2594 5.86908 17.7 5.43939 19.1812H18.9125C18.5906 18.3125 18.3938 17.3469 18.6688 16.1906C18.0875 16.4281 17.4875 16.9219 17.3344 17.7906L17.1656 18.7375L16.7969 17.85C16.4219 16.95 16.8406 15.825 17.3469 14.7187C17.5531 14.2594 17.7844 13.8094 18 13.3781Z" fill="#647B68"/>
</g>
<defs>
<clipPath id="clip0_3096_2739">
<rect width="16" height="16" fill="white" transform="translate(4 4)"/>
</clipPath>
</defs>
</svg>
