<svg width="16" height="16" viewBox="0 0 16 16" fill="none" xmlns="http://www.w3.org/2000/svg">
<g clip-path="url(#clip0_3189_11682)">
<path d="M10.75 0C12.8219 0 14.5 1.67812 14.5 3.75V4.15625C15.4156 4.46561 15.9999 5.23429 16 6.34668C16 7.21851 15.2093 8.68401 13.9375 9.83398C13.8188 9.94336 13.6594 10 13.5 10C13.3406 10 13.1812 9.94336 13.0625 9.83398C11.7907 8.68401 11 7.21851 11 6.34668C11.0001 5.23429 11.5844 4.46873 12.5 4.15625V3.75C12.5 2.78437 11.7156 2 10.75 2C9.78438 2 9 2.78437 9 3.75V15C9 15.5531 8.55313 16 8 16C7.44688 16 7 15.5531 7 15V7.75C7 6.78438 6.21562 6 5.25 6C4.28438 6 3.5 6.78438 3.5 7.75V8.15625C4.41557 8.46561 4.99993 9.23429 5 10.3467C5 11.2185 4.20926 12.684 2.9375 13.834C2.81875 13.9434 2.65937 14 2.5 14C2.34063 14 2.18125 13.9434 2.0625 13.834C0.790739 12.684 0 11.2185 0 10.3467C6.84592e-05 9.23429 0.584429 8.46873 1.5 8.15625V7.75C1.5 5.67812 3.17812 4 5.25 4C5.88125 4 6.47813 4.15664 7 4.43164V3.75C7 1.67812 8.67813 0 10.75 0ZM13.4443 7.33301C13.3561 7.33304 13.2714 7.36835 13.209 7.43066C13.1465 7.49318 13.1113 7.57859 13.1113 7.66699C13.1114 7.75528 13.1465 7.83991 13.209 7.90234C13.2715 7.96476 13.356 7.99997 13.4443 8C13.5326 8 13.6172 7.96472 13.6797 7.90234C13.7421 7.83991 13.7773 7.75528 13.7773 7.66699C13.7773 7.57859 13.7422 7.49318 13.6797 7.43066C13.6172 7.36839 13.5326 7.33301 13.4443 7.33301ZM12.4443 6.88867C12.3265 6.8887 12.2132 6.93621 12.1299 7.01953C12.0468 7.10277 12.0001 7.21543 12 7.33301C12 7.45078 12.0467 7.56413 12.1299 7.64746C12.2132 7.73078 12.3265 7.77732 12.4443 7.77734C12.5622 7.77734 12.6754 7.73081 12.7588 7.64746C12.8421 7.56412 12.8887 7.45083 12.8887 7.33301C12.8886 7.21538 12.8419 7.10278 12.7588 7.01953C12.6754 6.93618 12.5622 6.88867 12.4443 6.88867ZM13.4443 6C13.297 6.00003 13.1559 6.05892 13.0518 6.16309C12.9476 6.26726 12.8887 6.40837 12.8887 6.55566C12.8887 6.70297 12.9476 6.84408 13.0518 6.94824C13.1559 7.0524 13.297 7.1113 13.4443 7.11133C13.5916 7.11133 13.7327 7.05236 13.8369 6.94824C13.9411 6.84408 14 6.70297 14 6.55566C14 6.40832 13.9411 6.26727 13.8369 6.16309C13.7327 6.0589 13.5917 6 13.4443 6Z" fill="#A0A8B1"/>
</g>
<defs>
<clipPath id="clip0_3189_11682">
<rect width="16" height="16" fill="white"/>
</clipPath>
</defs>
</svg>
