<svg width="18" height="18" viewBox="0 0 18 18" fill="none" xmlns="http://www.w3.org/2000/svg">
<path d="M16.2727 9H17M9 1.72727V1M9 17V16.2727M14.8182 14.8182L14.0909 14.0909M14.8182 3.18182L14.0909 3.90909M3.18182 14.8182L3.90909 14.0909M3.18182 3.18182L3.90909 3.90909M1 9H1.72727M9 13.3636C10.1573 13.3636 11.2672 12.9039 12.0856 12.0856C12.9039 11.2672 13.3636 10.1573 13.3636 9C13.3636 7.84269 12.9039 6.73278 12.0856 5.91444C11.2672 5.0961 10.1573 4.63636 9 4.63636C7.84269 4.63636 6.73278 5.0961 5.91444 5.91444C5.0961 6.73278 4.63636 7.84269 4.63636 9C4.63636 10.1573 5.0961 11.2672 5.91444 12.0856C6.73278 12.9039 7.84269 13.3636 9 13.3636Z" stroke="#A0A8B1" stroke-width="2" stroke-linecap="round" stroke-linejoin="round"/>
</svg>
