<svg width="16" height="16" viewBox="0 0 16 16" fill="none" xmlns="http://www.w3.org/2000/svg">
<path d="M8 15C7.17037 15 6.42811 14.7842 5.77322 14.3525C5.11833 13.9209 4.584 13.3519 4.17022 12.6455L2.98411 13.3323C2.80263 13.4369 2.60819 13.4565 2.40078 13.3911C2.19337 13.3257 2.03782 13.2015 1.93411 13.0183C1.83041 12.8352 1.80448 12.639 1.85634 12.4297C1.90819 12.2204 2.02485 12.0635 2.20634 11.9588L3.548 11.174C3.50911 11.0301 3.47671 10.8828 3.45078 10.7321C3.42485 10.5815 3.39867 10.4344 3.37222 10.2911H1.77778C1.55741 10.2911 1.37282 10.2157 1.224 10.065C1.07519 9.91436 1.00052 9.7281 1 9.50625C0.999484 9.28441 1.07415 9.09815 1.224 8.94746C1.37385 8.79678 1.55845 8.72143 1.77778 8.72143H3.37222C3.39815 8.56447 3.42408 8.4109 3.45 8.26074C3.47593 8.11058 3.50833 7.9633 3.54722 7.81889L2.20556 7.03407C2.02408 6.92942 1.90741 6.77246 1.85556 6.56317C1.80371 6.35389 1.82963 6.15768 1.93334 5.97456C2.03704 5.79143 2.19597 5.67057 2.41011 5.61197C2.62426 5.55337 2.82182 5.57613 3.00278 5.68025L4.15 6.36697C4.25371 6.18384 4.37374 6.00412 4.51011 5.8278C4.64648 5.65147 4.7857 5.49111 4.92778 5.3467C4.90185 5.25514 4.88889 5.16358 4.88889 5.07201V4.79733C4.88889 4.4834 4.93426 4.18255 5.025 3.89478C5.11574 3.60701 5.23889 3.33887 5.39444 3.09034L4.65556 2.34476C4.51296 2.20088 4.4383 2.01775 4.43156 1.79539C4.42482 1.57302 4.49948 1.38336 4.65556 1.22639C4.79815 1.06943 4.97652 0.994345 5.19067 1.00115C5.40482 1.00795 5.58941 1.08303 5.74445 1.22639L6.56111 2.01121C6.78148 1.89349 7.0117 1.80533 7.25178 1.74673C7.49185 1.68813 7.74126 1.65857 8 1.65804C8.25874 1.65752 8.51152 1.69022 8.75833 1.75614C9.00515 1.82207 9.23848 1.91363 9.45833 2.03083L10.2556 1.22639C10.4111 1.06943 10.5926 0.994084 10.8 1.00036C11.0074 1.00664 11.1889 1.08852 11.3444 1.24601C11.487 1.40298 11.5617 1.5861 11.5684 1.79539C11.5752 2.00467 11.5005 2.1878 11.3444 2.34476L10.6056 3.09034C10.7611 3.33887 10.8811 3.60701 10.9657 3.89478C11.0502 4.18255 11.0922 4.4834 11.0917 4.79733V5.0626C11.0917 5.14736 11.0787 5.23552 11.0528 5.32708C11.1954 5.47096 11.3348 5.63447 11.4712 5.81759C11.6076 6.00072 11.7274 6.18384 11.8306 6.36697L13.0167 5.68025C13.1981 5.57561 13.3926 5.55259 13.6 5.61119C13.8074 5.66979 13.963 5.79091 14.0667 5.97456C14.1704 6.15821 14.1932 6.35781 14.1351 6.57338C14.077 6.78894 13.957 6.94904 13.775 7.05369L12.4333 7.81889C12.4722 7.96277 12.508 8.11006 12.5407 8.26074C12.5733 8.41143 12.6024 8.56499 12.6278 8.72143H14.2222C14.4426 8.72143 14.6274 8.79678 14.7768 8.94746C14.9261 9.09815 15.0005 9.28441 15 9.50625C14.9995 9.7281 14.9248 9.91462 14.776 10.0658C14.6272 10.217 14.4426 10.2921 14.2222 10.2911H12.6278C12.6019 10.448 12.5759 10.6019 12.55 10.7525C12.5241 10.9032 12.4917 11.0503 12.4528 11.1936L13.7944 11.9784C13.9759 12.0831 14.0926 12.2434 14.1444 12.4595C14.1963 12.6756 14.1704 12.875 14.0667 13.0576C13.963 13.2402 13.8074 13.3579 13.6 13.4107C13.3926 13.4636 13.1981 13.4374 13.0167 13.3323L11.8306 12.6455C11.4157 13.3519 10.8809 13.9209 10.226 14.3525C9.57111 14.7842 8.82911 15 8 15ZM6.52222 4.28719C6.74259 4.19563 6.9793 4.12709 7.23233 4.08157C7.48537 4.03605 7.74126 4.01303 8 4.01251C8.25874 4.01198 8.50841 4.0316 8.749 4.07137C8.98959 4.11113 9.21955 4.17653 9.43889 4.26757C9.33519 3.96672 9.1537 3.7182 8.89444 3.52199C8.63518 3.32579 8.33704 3.22768 8 3.22768C7.66296 3.22768 7.35833 3.32919 7.08611 3.5322C6.81389 3.7352 6.62593 3.98687 6.52222 4.28719ZM8 13.4304C8.9463 13.4304 9.70152 13.0314 10.2657 12.2335C10.8298 11.4356 11.1116 10.5265 11.1111 9.50625C11.1111 8.59063 10.8487 7.70771 10.324 6.85748C9.79926 6.00726 9.02459 5.58215 8 5.58215C6.98889 5.58215 6.21759 6.00412 5.68611 6.84806C5.15463 7.69201 4.88889 8.57807 4.88889 9.50625C4.88889 10.5265 5.17096 11.4356 5.73511 12.2335C6.29926 13.0314 7.05422 13.4304 8 13.4304ZM8 11.8607C7.77963 11.8607 7.59504 11.7854 7.44622 11.6347C7.29741 11.484 7.22274 11.2977 7.22222 11.0759V7.93661C7.22222 7.71425 7.29689 7.52798 7.44622 7.37782C7.59556 7.22766 7.78015 7.15231 8 7.15179C8.21985 7.15127 8.4047 7.22661 8.55456 7.37782C8.70441 7.52903 8.77881 7.71529 8.77778 7.93661V11.0759C8.77778 11.2983 8.70311 11.4848 8.55378 11.6355C8.40444 11.7862 8.21985 11.8612 8 11.8607Z" fill="#A0A8B1"/>
</svg>
