<svg width="18" height="18" viewBox="0 0 18 18" fill="none" xmlns="http://www.w3.org/2000/svg">
<path d="M1 9.88403H4.2M13 9.88403H17M1.8 16.292L1.808 16.2832M4.2 13.092L4.208 13.0832M6.6 16.292L6.608 16.2832M9 13.092L9.008 13.0832M11.4 16.292L11.408 16.2832M13.8 13.092L13.808 13.0832M16.2 16.292L16.208 16.2832M6.6 10.684C6.6 10.684 7.32 7.69123 9 5.88403" stroke="#A0A8B1" stroke-width="1.5" stroke-linecap="round" stroke-linejoin="round"/>
<path d="M12.3489 2.07687L12.6481 5.18887C12.8425 7.20727 11.3289 9.00487 9.31051 9.19847C7.33051 9.38887 5.53611 7.94167 5.34571 5.96087C5.2541 5.00992 5.54398 4.06152 6.15159 3.32429C6.7592 2.58706 7.63477 2.12137 8.58571 2.02967L11.9033 1.70967C11.9567 1.70449 12.0107 1.7099 12.062 1.7256C12.1134 1.74131 12.1611 1.76699 12.2025 1.80118C12.2439 1.83536 12.2781 1.87738 12.3033 1.92483C12.3284 1.97228 12.3439 2.02422 12.3489 2.07767" stroke="#A0A8B1" stroke-width="1.5" stroke-linecap="round" stroke-linejoin="round"/>
</svg>
