<svg width="16" height="16" viewBox="0 0 16 16" fill="none" xmlns="http://www.w3.org/2000/svg">
<path d="M13.2003 4.65353C12.6084 5.21177 12.4564 6.01471 12.7364 6.70294L10.4006 8.93588V7.35294C10.4006 6.93235 10.0406 6.58824 9.60069 6.58824H8.77678C8.80078 6.45824 8.80078 6.33588 8.80078 6.20588C8.80078 3.88118 6.83299 2 4.40125 2C3.4951 1.99919 2.61082 2.26603 1.86936 2.76402C1.12791 3.26201 0.565495 3.96682 0.25906 4.78205C-0.0473747 5.59728 -0.0828661 6.48311 0.157441 7.31836C0.397748 8.15361 0.902116 8.89749 1.60155 9.44824V14.2353C1.60155 14.6559 1.96151 15 2.40147 15H9.60069C10.0406 15 10.4006 14.6559 10.4006 14.2353V11.0924L13.8642 7.78118C14.5842 8.04882 15.4241 7.91118 16 7.35294L13.2003 4.65353ZM1.64155 6.58824C1.62555 6.45824 1.60155 6.33588 1.60155 6.20588C1.60155 4.73 2.85742 3.52941 4.40125 3.52941C5.94508 3.52941 7.20095 4.73 7.20095 6.20588C7.20095 6.33588 7.17695 6.45824 7.16095 6.58824M8.80078 13.4706H3.20138V8.11765H8.80078V13.4706Z" fill="#A0A8B1"/>
</svg>
