<svg width="24" height="24" viewBox="0 0 24 24" fill="none" xmlns="http://www.w3.org/2000/svg">
<path d="M12.4134 17.8816L17.1422 20.8771C17.7467 21.2596 18.4967 20.6903 18.3174 19.9846L16.9517 14.6108C16.9131 14.4611 16.9176 14.3036 16.9645 14.1563C17.0115 14.0091 17.0991 13.878 17.2172 13.7783L21.4577 10.2496C22.0142 9.78607 21.7277 8.86132 21.0114 8.81482L15.4742 8.45482C15.3251 8.44424 15.1821 8.39154 15.0618 8.30284C14.9415 8.21415 14.8489 8.09311 14.7947 7.95382L12.7292 2.75332C12.673 2.60552 12.5731 2.47831 12.4429 2.38856C12.3127 2.2988 12.1583 2.25073 12.0002 2.25073C11.8421 2.25073 11.6877 2.2988 11.5575 2.38856C11.4273 2.47831 11.3274 2.60552 11.2712 2.75332L9.2057 7.95382C9.15163 8.09325 9.05905 8.21445 8.93874 8.30328C8.81844 8.39211 8.67536 8.44493 8.5262 8.45557L2.98895 8.81557C2.27345 8.86132 1.98545 9.78607 2.5427 10.2496L6.7832 13.7791C6.90118 13.8787 6.98867 14.0096 7.03563 14.1567C7.0826 14.3039 7.08712 14.4612 7.0487 14.6108L5.7827 19.5946C5.56745 20.4413 6.4682 21.1246 7.1927 20.6648L11.5877 17.8816C11.7112 17.803 11.8546 17.7613 12.0009 17.7613C12.1473 17.7613 12.2907 17.803 12.4142 17.8816H12.4134Z" fill="#C1C9D2"/>
<path d="M12.0005 2.25098C12.1585 2.25099 12.3127 2.29898 12.4429 2.38867C12.5729 2.47833 12.6727 2.60533 12.729 2.75293L14.7944 7.9541C14.8486 8.09334 14.9418 8.21406 15.062 8.30273C15.1822 8.39138 15.3251 8.44446 15.4741 8.45508L18.3999 8.64453V12.7939L17.2173 13.7783C17.0992 13.878 17.0113 14.009 16.9644 14.1562C16.9175 14.3033 16.9132 14.4608 16.9517 14.6104L18.3179 19.9844C18.4971 20.6901 17.7466 21.2595 17.1421 20.877L12.4146 17.8818C12.2911 17.8034 12.1477 17.7618 12.0015 17.7617C11.8552 17.7617 11.7119 17.8034 11.5884 17.8818L7.19287 20.665C6.46845 21.1246 5.56766 20.4413 5.78271 19.5947L7.04932 14.6104C7.08756 14.4611 7.08243 14.3041 7.03564 14.1572C6.98872 14.0102 6.90153 13.8789 6.78369 13.7793L2.54248 10.25C1.98537 9.78657 2.27356 8.86147 2.98877 8.81543L8.52686 8.45605C8.67579 8.44535 8.81881 8.39238 8.93896 8.30371C9.05917 8.21495 9.15148 8.09338 9.20557 7.9541L11.271 2.75293C11.3273 2.60522 11.428 2.47839 11.5581 2.38867C11.6882 2.29902 11.8425 2.25098 12.0005 2.25098Z" fill="#E78C23"/>
</svg>
