<svg width="24" height="24" viewBox="0 0 24 24" fill="none" xmlns="http://www.w3.org/2000/svg">
<rect width="24" height="24" rx="12" fill="#915D56" fill-opacity="0.3"/>
<g clip-path="url(#clip0_3125_5730)">
<path d="M14.5275 6.22417C14.6711 6.08063 14.8658 6 15.0688 6C15.2718 6 15.4665 6.08063 15.6101 6.22417L16.6895 7.30371L16.6926 7.30677L16.6964 7.30983L17.7759 8.38938C17.9195 8.53304 18.0001 8.72785 18 8.93095C17.9999 9.13405 17.9192 9.3288 17.7755 9.47236C17.6319 9.61593 17.4371 9.69654 17.234 9.69647C17.0309 9.69639 16.8362 9.61564 16.6926 9.47198L16.1513 8.93068L12.3616 12.7206L13.4442 13.8032C13.5864 13.9454 13.6993 14.1142 13.7763 14.3C13.8533 14.4858 13.8929 14.685 13.8929 14.8862C13.8929 15.0873 13.8533 15.2865 13.7763 15.4723C13.6993 15.6581 13.5864 15.8269 13.4442 15.9691L11.5348 17.8786C11.0321 18.3814 10.3993 18.7342 9.70742 18.8976C9.01549 19.0609 8.29174 19.0284 7.61728 18.8035L6.89073 18.5616C6.55247 18.4487 6.24512 18.2587 5.99304 18.0064C5.74096 17.7542 5.55107 17.4467 5.43841 17.1084L5.19648 16.3826C4.97163 15.7081 4.93906 14.9843 5.10241 14.2923C5.26576 13.6004 5.61857 12.9676 6.12131 12.4648L8.0307 10.5546C8.17289 10.4123 8.34171 10.2995 8.52752 10.2225C8.71334 10.1455 8.9125 10.1059 9.11363 10.1059C9.31476 10.1059 9.51392 10.1455 9.69973 10.2225C9.88554 10.2995 10.0544 10.4123 10.1966 10.5546L11.2791 11.638L15.0688 7.84807L14.5275 7.30677C14.384 7.16319 14.3034 6.96849 14.3034 6.76547C14.3034 6.56245 14.384 6.36774 14.5275 6.22417Z" fill="#66413C"/>
</g>
<defs>
<clipPath id="clip0_3125_5730">
<rect width="16" height="16" fill="white" transform="translate(4 4)"/>
</clipPath>
</defs>
</svg>
