<svg width="24" height="24" viewBox="0 0 24 24" fill="none" xmlns="http://www.w3.org/2000/svg">
<path d="M10 23V21H5C4.45 21 3.97933 20.8043 3.588 20.413C3.19667 20.0217 3.00067 19.5507 3 19V5C3 4.45 3.196 3.97933 3.588 3.588C3.98 3.19667 4.45067 3.00067 5 3H10V1H12V23H10ZM5 19H10V17V15V13V11V9V7V5H5V19ZM14 5V3H19C19.55 3 20.021 3.196 20.413 3.588C20.805 3.98 21.0007 4.45067 21 5V19C21 19.55 20.8043 20.021 20.413 20.413C20.0217 20.805 19.5507 21.0007 19 21H14V19H19V5H14Z" fill="#FAFAFA"/>
<line x1="7" y1="7.5" x2="11" y2="7.5" stroke="white"/>
<line x1="7" y1="10.5" x2="11" y2="10.5" stroke="white"/>
<line x1="7" y1="13.5" x2="11" y2="13.5" stroke="white"/>
<line x1="7" y1="16.5" x2="11" y2="16.5" stroke="white"/>
<path d="M14 7.5H17" stroke="white"/>
<line x1="14" y1="10.5" x2="17" y2="10.5" stroke="white"/>
</svg>
