<svg width="24" height="24" viewBox="0 0 24 24" fill="none" xmlns="http://www.w3.org/2000/svg">
<path d="M9.02868 20.7894V19.067H4.72248C4.2488 19.067 3.84344 18.8985 3.50641 18.5614C3.16938 18.2244 3.00057 17.8187 3 17.3445V5.28712C3 4.81344 3.1688 4.40808 3.50641 4.07105C3.84402 3.73402 4.24937 3.56522 4.72248 3.56464H9.02868V1.84216H10.7512V20.7894H9.02868ZM4.72248 17.3445H9.02868V15.622V13.8995V12.177V10.4546V8.73208V7.0096V5.28712H4.72248V17.3445ZM12.4736 5.28712V3.56464H16.7798C17.2535 3.56464 17.6592 3.73345 17.9968 4.07105C18.3344 4.40866 18.5029 4.81402 18.5023 5.28712V12.177C18.5023 12.177 17.2541 12.1776 16.7798 12.177V5.28712H12.4736Z" fill="#11263C"/>
<line x1="6.44482" y1="7.02881" x2="9.88978" y2="7.02881" stroke="#11263C"/>
<line x1="6.44482" y1="9.61243" x2="9.88978" y2="9.61243" stroke="#11263C"/>
<line x1="6.44482" y1="12.1962" x2="9.88978" y2="12.1962" stroke="#11263C"/>
<line x1="6.44482" y1="14.7799" x2="9.88978" y2="14.7799" stroke="#11263C"/>
<path d="M12.4736 7.09802H15.0574" stroke="#11263C"/>
<line x1="12.4736" y1="9.61243" x2="15.0574" y2="9.61243" stroke="#11263C"/>
<path d="M18.6874 21L18.6875 18.1874L21.5 18.1874L21.5 16.3124L18.6875 16.3124L18.6876 13.5L16.8126 13.5L16.8125 16.3125L14 16.3126L14 18.1876L16.8125 18.1875L16.8124 21L18.6874 21Z" fill="#11263C"/>
</svg>
