<svg width="236" height="6" viewBox="0 0 236 6" fill="none" xmlns="http://www.w3.org/2000/svg">
<path d="M2.6 5.2C1.8813 5.2 1.26829 4.95984 0.760976 4.47952C0.253659 3.97831 0 3.35181 0 2.6C0 1.80643 0.253659 1.17992 0.760976 0.720482C1.26829 0.240161 1.8813 0 2.6 0C3.3187 0 3.93171 0.240161 4.43902 0.720482C4.94634 1.17992 5.2 1.80643 5.2 2.6C5.2 3.35181 4.94634 3.97831 4.43902 4.47952C3.93171 4.95984 3.3187 5.2 2.6 5.2Z" fill="#ABC7AC"/>
<path d="M11.8 5.2C11.0813 5.2 10.4682 4.95984 9.96093 4.47952C9.45361 3.97831 9.19995 3.35181 9.19995 2.6C9.19995 1.80643 9.45361 1.17992 9.96093 0.720482C10.4682 0.240161 11.0813 0 11.8 0C12.5186 0 13.1317 0.240161 13.639 0.720482C14.1463 1.17992 14.4 1.80643 14.4 2.6C14.4 3.35181 14.1463 3.97831 13.639 4.47952C13.1317 4.95984 12.5186 5.2 11.8 5.2Z" fill="#ABC7AC"/>
<path d="M20.9999 5.2C20.2812 5.2 19.6682 4.95984 19.1609 4.47952C18.6536 3.97831 18.3999 3.35181 18.3999 2.6C18.3999 1.80643 18.6536 1.17992 19.1609 0.720482C19.6682 0.240161 20.2812 0 20.9999 0C21.7186 0 22.3316 0.240161 22.8389 0.720482C23.3462 1.17992 23.5999 1.80643 23.5999 2.6C23.5999 3.35181 23.3462 3.97831 22.8389 4.47952C22.3316 4.95984 21.7186 5.2 20.9999 5.2Z" fill="#ABC7AC"/>
<path d="M30.1001 5.10001C29.409 5.10001 28.8196 4.86908 28.3318 4.40723C27.844 3.92531 27.6001 3.3229 27.6001 2.60001C27.6001 1.83696 27.844 1.23454 28.3318 0.792777C28.8196 0.33093 29.409 0.100006 30.1001 0.100006C30.7912 0.100006 31.3806 0.33093 31.8684 0.792777C32.3562 1.23454 32.6001 1.83696 32.6001 2.60001C32.6001 3.3229 32.3562 3.92531 31.8684 4.40723C31.3806 4.86908 30.7912 5.10001 30.1001 5.10001Z" fill="#ABC7AC"/>
<path d="M39.1001 5.10001C38.409 5.10001 37.8196 4.86908 37.3318 4.40723C36.844 3.92531 36.6001 3.3229 36.6001 2.60001C36.6001 1.83696 36.844 1.23454 37.3318 0.792777C37.8196 0.33093 38.409 0.100006 39.1001 0.100006C39.7912 0.100006 40.3806 0.33093 40.8684 0.792777C41.3562 1.23454 41.6001 1.83696 41.6001 2.60001C41.6001 3.3229 41.3562 3.92531 40.8684 4.40723C40.3806 4.86908 39.7912 5.10001 39.1001 5.10001Z" fill="#ABC7AC"/>
<path d="M48.1001 5.10001C47.409 5.10001 46.8196 4.86908 46.3318 4.40723C45.844 3.92531 45.6001 3.3229 45.6001 2.60001C45.6001 1.83696 45.844 1.23454 46.3318 0.792777C46.8196 0.33093 47.409 0.100006 48.1001 0.100006C48.7912 0.100006 49.3806 0.33093 49.8684 0.792777C50.3562 1.23454 50.6001 1.83696 50.6001 2.60001C50.6001 3.3229 50.3562 3.92531 49.8684 4.40723C49.3806 4.86908 48.7912 5.10001 48.1001 5.10001Z" fill="#ABC7AC"/>
<path d="M57.0001 5.02927C56.3367 5.02927 55.7708 4.80488 55.3025 4.3561C54.8342 3.8878 54.6001 3.30244 54.6001 2.6C54.6001 1.85854 54.8342 1.27317 55.3025 0.843901C55.7708 0.395121 56.3367 0.170731 57.0001 0.170731C57.6635 0.170731 58.2294 0.395121 58.6977 0.843901C59.166 1.27317 59.4001 1.85854 59.4001 2.6C59.4001 3.30244 59.166 3.8878 58.6977 4.3561C58.2294 4.80488 57.6635 5.02927 57.0001 5.02927Z" fill="#ABC7AC"/>
<path d="M65.7999 5.02927C65.1365 5.02927 64.5706 4.80488 64.1023 4.3561C63.634 3.8878 63.3999 3.30244 63.3999 2.6C63.3999 1.85854 63.634 1.27317 64.1023 0.843901C64.5706 0.395121 65.1365 0.170731 65.7999 0.170731C66.4633 0.170731 67.0292 0.395121 67.4975 0.843901C67.9658 1.27317 68.1999 1.85854 68.1999 2.6C68.1999 3.30244 67.9658 3.8878 67.4975 4.3561C67.0292 4.80488 66.4633 5.02927 65.7999 5.02927Z" fill="#ABC7AC"/>
<path d="M74.6 5.02927C73.9365 5.02927 73.3707 4.80488 72.9024 4.3561C72.4341 3.8878 72.2 3.30244 72.2 2.6C72.2 1.85854 72.4341 1.27317 72.9024 0.843901C73.3707 0.395121 73.9365 0.170731 74.6 0.170731C75.2634 0.170731 75.8292 0.395121 76.2975 0.843901C76.7658 1.27317 77 1.85854 77 2.6C77 3.30244 76.7658 3.8878 76.2975 4.3561C75.8292 4.80488 75.2634 5.02927 74.6 5.02927Z" fill="#ABC7AC"/>
<path d="M83.2 4.79999C82.5919 4.79999 82.0732 4.59678 81.6439 4.19036C81.2146 3.76626 81 3.23614 81 2.6C81 1.92851 81.2146 1.39839 81.6439 1.00963C82.0732 0.603207 82.5919 0.399994 83.2 0.399994C83.8081 0.399994 84.3268 0.603207 84.7561 1.00963C85.1854 1.39839 85.4 1.92851 85.4 2.6C85.4 3.23614 85.1854 3.76626 84.7561 4.19036C84.3268 4.59678 83.8081 4.79999 83.2 4.79999Z" fill="#ABC7AC"/>
<path d="M91.5999 4.79999C90.9918 4.79999 90.4731 4.59678 90.0438 4.19036C89.6145 3.76626 89.3999 3.23614 89.3999 2.6C89.3999 1.92851 89.6145 1.39839 90.0438 1.00963C90.4731 0.603207 90.9918 0.399994 91.5999 0.399994C92.208 0.399994 92.7267 0.603207 93.156 1.00963C93.5853 1.39839 93.7999 1.92851 93.7999 2.6C93.7999 3.23614 93.5853 3.76626 93.156 4.19036C92.7267 4.59678 92.208 4.79999 91.5999 4.79999Z" fill="#ABC7AC"/>
<path d="M100 4.79999C99.3919 4.79999 98.8732 4.59678 98.444 4.19036C98.0147 3.76626 97.8 3.23614 97.8 2.6C97.8 1.92851 98.0147 1.39839 98.444 1.00963C98.8732 0.603207 99.3919 0.399994 100 0.399994C100.608 0.399994 101.127 0.603207 101.556 1.00963C101.985 1.39839 102.2 1.92851 102.2 2.6C102.2 3.23614 101.985 3.76626 101.556 4.19036C101.127 4.59678 100.608 4.79999 100 4.79999Z" fill="#ABC7AC"/>
<path d="M108.2 4.60001C107.647 4.60001 107.176 4.41527 106.785 4.04579C106.395 3.66025 106.2 3.17832 106.2 2.60001C106.2 1.98957 106.395 1.50764 106.785 1.15422C107.176 0.784745 107.647 0.600006 108.2 0.600006C108.753 0.600006 109.224 0.784745 109.615 1.15422C110.005 1.50764 110.2 1.98957 110.2 2.60001C110.2 3.17832 110.005 3.66025 109.615 4.04579C109.224 4.41527 108.753 4.60001 108.2 4.60001Z" fill="#ABC7AC"/>
<path d="M116.2 4.60001C115.647 4.60001 115.176 4.41527 114.785 4.04579C114.395 3.66025 114.2 3.17832 114.2 2.60001C114.2 1.98957 114.395 1.50764 114.785 1.15422C115.176 0.784745 115.647 0.600006 116.2 0.600006C116.753 0.600006 117.224 0.784745 117.615 1.15422C118.005 1.50764 118.2 1.98957 118.2 2.60001C118.2 3.17832 118.005 3.66025 117.615 4.04579C117.224 4.41527 116.753 4.60001 116.2 4.60001Z" fill="#ABC7AC"/>
<path d="M124.2 4.60001C123.647 4.60001 123.176 4.41527 122.785 4.04579C122.395 3.66025 122.2 3.17832 122.2 2.60001C122.2 1.98957 122.395 1.50764 122.785 1.15422C123.176 0.784745 123.647 0.600006 124.2 0.600006C124.753 0.600006 125.224 0.784745 125.615 1.15422C126.005 1.50764 126.2 1.98957 126.2 2.60001C126.2 3.17832 126.005 3.66025 125.615 4.04579C125.224 4.41527 124.753 4.60001 124.2 4.60001Z" fill="#ABC7AC"/>
<path d="M132.1 4.5C131.575 4.5 131.127 4.32449 130.756 3.97349C130.385 3.60723 130.2 3.1494 130.2 2.6C130.2 2.02008 130.385 1.56225 130.756 1.2265C131.127 0.875499 131.575 0.699997 132.1 0.699997C132.625 0.699997 133.073 0.875499 133.444 1.2265C133.815 1.56225 134 2.02008 134 2.6C134 3.1494 133.815 3.60723 133.444 3.97349C133.073 4.32449 132.625 4.5 132.1 4.5Z" fill="#ABC7AC"/>
<path d="M139.9 4.5C139.375 4.5 138.927 4.32449 138.556 3.97349C138.185 3.60723 138 3.1494 138 2.6C138 2.02008 138.185 1.56225 138.556 1.2265C138.927 0.875499 139.375 0.699997 139.9 0.699997C140.425 0.699997 140.873 0.875499 141.244 1.2265C141.615 1.56225 141.8 2.02008 141.8 2.6C141.8 3.1494 141.615 3.60723 141.244 3.97349C140.873 4.32449 140.425 4.5 139.9 4.5Z" fill="#ABC7AC"/>
<path d="M147.7 4.5C147.175 4.5 146.727 4.32449 146.356 3.97349C145.985 3.60723 145.8 3.1494 145.8 2.6C145.8 2.02008 145.985 1.56225 146.356 1.2265C146.727 0.875499 147.175 0.699997 147.7 0.699997C148.225 0.699997 148.673 0.875499 149.044 1.2265C149.415 1.56225 149.6 2.02008 149.6 2.6C149.6 3.1494 149.415 3.60723 149.044 3.97349C148.673 4.32449 148.225 4.5 147.7 4.5Z" fill="#ABC7AC"/>
<path d="M155.4 4.42195C154.903 4.42195 154.478 4.25366 154.127 3.91708C153.776 3.56586 153.6 3.12684 153.6 2.60001C153.6 2.04391 153.776 1.60489 154.127 1.28294C154.478 0.946353 154.903 0.778061 155.4 0.778061C155.898 0.778061 156.322 0.946353 156.673 1.28294C157.024 1.60489 157.2 2.04391 157.2 2.60001C157.2 3.12684 157.024 3.56586 156.673 3.91708C156.322 4.25366 155.898 4.42195 155.4 4.42195Z" fill="#ABC7AC"/>
<path d="M163 4.42195C162.502 4.42195 162.078 4.25366 161.727 3.91708C161.376 3.56586 161.2 3.12684 161.2 2.60001C161.2 2.04391 161.376 1.60489 161.727 1.28294C162.078 0.946353 162.502 0.778061 163 0.778061C163.498 0.778061 163.922 0.946353 164.273 1.28294C164.624 1.60489 164.8 2.04391 164.8 2.60001C164.8 3.12684 164.624 3.56586 164.273 3.91708C163.922 4.25366 163.498 4.42195 163 4.42195Z" fill="#ABC7AC"/>
<path d="M170.6 4.42195C170.102 4.42195 169.678 4.25366 169.327 3.91708C168.976 3.56586 168.8 3.12684 168.8 2.60001C168.8 2.04391 168.976 1.60489 169.327 1.28294C169.678 0.946353 170.102 0.778061 170.6 0.778061C171.098 0.778061 171.522 0.946353 171.873 1.28294C172.224 1.60489 172.4 2.04391 172.4 2.60001C172.4 3.12684 172.224 3.56586 171.873 3.91708C171.522 4.25366 171.098 4.42195 170.6 4.42195Z" fill="#ABC7AC"/>
<path d="M178.1 4.32073C177.63 4.32073 177.229 4.16178 176.898 3.8439C176.566 3.51219 176.4 3.09756 176.4 2.6C176.4 2.0748 176.566 1.66016 176.898 1.3561C177.229 1.03822 177.63 0.879272 178.1 0.879272C178.57 0.879272 178.971 1.03822 179.303 1.3561C179.634 1.66016 179.8 2.0748 179.8 2.6C179.8 3.09756 179.634 3.51219 179.303 3.8439C178.971 4.16178 178.57 4.32073 178.1 4.32073Z" fill="#ABC7AC"/>
<path d="M185.5 4.32073C185.03 4.32073 184.629 4.16178 184.298 3.8439C183.966 3.51219 183.8 3.09756 183.8 2.6C183.8 2.0748 183.966 1.66016 184.298 1.3561C184.629 1.03822 185.03 0.879272 185.5 0.879272C185.97 0.879272 186.371 1.03822 186.702 1.3561C187.034 1.66016 187.2 2.0748 187.2 2.6C187.2 3.09756 187.034 3.51219 186.702 3.8439C186.371 4.16178 185.97 4.32073 185.5 4.32073Z" fill="#ABC7AC"/>
<path d="M192.9 4.32073C192.43 4.32073 192.029 4.16178 191.698 3.8439C191.366 3.51219 191.2 3.09756 191.2 2.6C191.2 2.0748 191.366 1.66016 191.698 1.3561C192.029 1.03822 192.43 0.879272 192.9 0.879272C193.37 0.879272 193.771 1.03822 194.102 1.3561C194.434 1.66016 194.6 2.0748 194.6 2.6C194.6 3.09756 194.434 3.51219 194.102 3.8439C193.771 4.16178 193.37 4.32073 192.9 4.32073Z" fill="#ABC7AC"/>
<path d="M200.1 4.10001C199.685 4.10001 199.332 3.96145 199.039 3.68434C198.746 3.39519 198.6 3.03374 198.6 2.60001C198.6 2.14218 198.746 1.78073 199.039 1.51567C199.332 1.23856 199.685 1.10001 200.1 1.10001C200.515 1.10001 200.868 1.23856 201.161 1.51567C201.454 1.78073 201.6 2.14218 201.6 2.60001C201.6 3.03374 201.454 3.39519 201.161 3.68434C200.868 3.96145 200.515 4.10001 200.1 4.10001Z" fill="#ABC7AC"/>
<path d="M207.1 4.10001C206.685 4.10001 206.332 3.96145 206.039 3.68434C205.746 3.39519 205.6 3.03374 205.6 2.60001C205.6 2.14218 205.746 1.78073 206.039 1.51567C206.332 1.23856 206.685 1.10001 207.1 1.10001C207.515 1.10001 207.868 1.23856 208.161 1.51567C208.454 1.78073 208.6 2.14218 208.6 2.60001C208.6 3.03374 208.454 3.39519 208.161 3.68434C207.868 3.96145 207.515 4.10001 207.1 4.10001Z" fill="#ABC7AC"/>
<path d="M214.1 4.10001C213.685 4.10001 213.332 3.96145 213.039 3.68434C212.746 3.39519 212.6 3.03374 212.6 2.60001C212.6 2.14218 212.746 1.78073 213.039 1.51567C213.332 1.23856 213.685 1.10001 214.1 1.10001C214.515 1.10001 214.868 1.23856 215.161 1.51567C215.454 1.78073 215.6 2.14218 215.6 2.60001C215.6 3.03374 215.454 3.39519 215.161 3.68434C214.868 3.96145 214.515 4.10001 214.1 4.10001Z" fill="#ABC7AC"/>
<path d="M220.912 3.928C220.549 3.928 220.24 3.80534 219.984 3.56C219.728 3.304 219.6 2.984 219.6 2.6C219.6 2.19467 219.728 1.87467 219.984 1.64C220.24 1.39467 220.549 1.272 220.912 1.272C221.275 1.272 221.584 1.39467 221.84 1.64C222.096 1.87467 222.224 2.19467 222.224 2.6C222.224 2.984 222.096 3.304 221.84 3.56C221.584 3.80534 221.275 3.928 220.912 3.928Z" fill="#ABC7AC"/>
<path d="M227.536 3.928C227.173 3.928 226.864 3.80534 226.608 3.56C226.352 3.304 226.224 2.984 226.224 2.6C226.224 2.19467 226.352 1.87467 226.608 1.64C226.864 1.39467 227.173 1.272 227.536 1.272C227.899 1.272 228.208 1.39467 228.464 1.64C228.72 1.87467 228.848 2.19467 228.848 2.6C228.848 2.984 228.72 3.304 228.464 3.56C228.208 3.80534 227.899 3.928 227.536 3.928Z" fill="#ABC7AC"/>
<path d="M234.16 3.928C233.797 3.928 233.488 3.80534 233.232 3.56C232.976 3.304 232.848 2.984 232.848 2.6C232.848 2.19467 232.976 1.87467 233.232 1.64C233.488 1.39467 233.797 1.272 234.16 1.272C234.523 1.272 234.832 1.39467 235.088 1.64C235.344 1.87467 235.472 2.19467 235.472 2.6C235.472 2.984 235.344 3.304 235.088 3.56C234.832 3.80534 234.523 3.928 234.16 3.928Z" fill="#ABC7AC"/>
</svg>
