<svg width="155" height="5" viewBox="0 0 155 5" fill="none" xmlns="http://www.w3.org/2000/svg">
<path d="M2.2 4.79999C1.59187 4.79999 1.07317 4.59678 0.6439 4.19036C0.214632 3.76626 0 3.23614 0 2.6C0 1.92851 0.214632 1.39839 0.6439 1.00963C1.07317 0.603207 1.59187 0.399994 2.2 0.399994C2.80813 0.399994 3.32683 0.603207 3.7561 1.00963C4.18537 1.39839 4.4 1.92851 4.4 2.6C4.4 3.23614 4.18537 3.76626 3.7561 4.19036C3.32683 4.59678 2.80813 4.79999 2.2 4.79999Z" fill="#ABC7AC"/>
<path d="M10.6 4.79999C9.99187 4.79999 9.47317 4.59678 9.0439 4.19036C8.61463 3.76626 8.4 3.23614 8.4 2.6C8.4 1.92851 8.61463 1.39839 9.0439 1.00963C9.47317 0.603207 9.99187 0.399994 10.6 0.399994C11.2081 0.399994 11.7268 0.603207 12.1561 1.00963C12.5854 1.39839 12.8 1.92851 12.8 2.6C12.8 3.23614 12.5854 3.76626 12.1561 4.19036C11.7268 4.59678 11.2081 4.79999 10.6 4.79999Z" fill="#ABC7AC"/>
<path d="M19 4.79999C18.3919 4.79999 17.8732 4.59678 17.4439 4.19036C17.0146 3.76626 16.8 3.23614 16.8 2.6C16.8 1.92851 17.0146 1.39839 17.4439 1.00963C17.8732 0.603207 18.3919 0.399994 19 0.399994C19.6081 0.399994 20.1268 0.603207 20.5561 1.00963C20.9854 1.39839 21.2 1.92851 21.2 2.6C21.2 3.23614 20.9854 3.76626 20.5561 4.19036C20.1268 4.59678 19.6081 4.79999 19 4.79999Z" fill="#ABC7AC"/>
<path d="M27.2 4.59999C26.6472 4.59999 26.1756 4.41525 25.7854 4.04578C25.3951 3.66023 25.2 3.17831 25.2 2.6C25.2 1.98955 25.3951 1.50762 25.7854 1.15421C26.1756 0.784733 26.6472 0.599994 27.2 0.599994C27.7529 0.599994 28.2244 0.784733 28.6146 1.15421C29.0049 1.50762 29.2 1.98955 29.2 2.6C29.2 3.17831 29.0049 3.66023 28.6146 4.04578C28.2244 4.41525 27.7529 4.59999 27.2 4.59999Z" fill="#ABC7AC"/>
<path d="M35.2 4.59999C34.6472 4.59999 34.1756 4.41525 33.7854 4.04578C33.3951 3.66023 33.2 3.17831 33.2 2.6C33.2 1.98955 33.3951 1.50762 33.7854 1.15421C34.1756 0.784733 34.6472 0.599994 35.2 0.599994C35.7529 0.599994 36.2244 0.784733 36.6146 1.15421C37.0049 1.50762 37.2 1.98955 37.2 2.6C37.2 3.17831 37.0049 3.66023 36.6146 4.04578C36.2244 4.41525 35.7529 4.59999 35.2 4.59999Z" fill="#ABC7AC"/>
<path d="M43.2 4.59999C42.6472 4.59999 42.1756 4.41525 41.7854 4.04578C41.3951 3.66023 41.2 3.17831 41.2 2.6C41.2 1.98955 41.3951 1.50762 41.7854 1.15421C42.1756 0.784733 42.6472 0.599994 43.2 0.599994C43.7529 0.599994 44.2244 0.784733 44.6146 1.15421C45.0049 1.50762 45.2 1.98955 45.2 2.6C45.2 3.17831 45.0049 3.66023 44.6146 4.04578C44.2244 4.41525 43.7529 4.59999 43.2 4.59999Z" fill="#ABC7AC"/>
<path d="M51.1 4.49999C50.5748 4.49999 50.1268 4.32449 49.7561 3.97349C49.3854 3.60722 49.2 3.14939 49.2 2.6C49.2 2.02008 49.3854 1.56224 49.7561 1.2265C50.1268 0.875496 50.5748 0.699994 51.1 0.699994C51.6252 0.699994 52.0732 0.875496 52.4439 1.2265C52.8146 1.56224 53 2.02008 53 2.6C53 3.14939 52.8146 3.60722 52.4439 3.97349C52.0732 4.32449 51.6252 4.49999 51.1 4.49999Z" fill="#ABC7AC"/>
<path d="M58.9 4.49999C58.3748 4.49999 57.9268 4.32449 57.5561 3.97349C57.1854 3.60722 57 3.14939 57 2.6C57 2.02008 57.1854 1.56224 57.5561 1.2265C57.9268 0.875496 58.3748 0.699994 58.9 0.699994C59.4252 0.699994 59.8732 0.875496 60.2439 1.2265C60.6146 1.56224 60.8 2.02008 60.8 2.6C60.8 3.14939 60.6146 3.60722 60.2439 3.97349C59.8732 4.32449 59.4252 4.49999 58.9 4.49999Z" fill="#ABC7AC"/>
<path d="M66.7 4.49999C66.1748 4.49999 65.7268 4.32449 65.3561 3.97349C64.9854 3.60722 64.8 3.14939 64.8 2.6C64.8 2.02008 64.9854 1.56224 65.3561 1.2265C65.7268 0.875496 66.1748 0.699994 66.7 0.699994C67.2252 0.699994 67.6732 0.875496 68.0439 1.2265C68.4146 1.56224 68.6 2.02008 68.6 2.6C68.6 3.14939 68.4146 3.60722 68.0439 3.97349C67.6732 4.32449 67.2252 4.49999 66.7 4.49999Z" fill="#ABC7AC"/>
<path d="M74.4 4.42194C73.9025 4.42194 73.4781 4.25365 73.1269 3.91706C72.7756 3.56584 72.6 3.12682 72.6 2.6C72.6 2.0439 72.7756 1.60488 73.1269 1.28292C73.4781 0.946341 73.9025 0.778048 74.4 0.778048C74.8976 0.778048 75.322 0.946341 75.6732 1.28292C76.0244 1.60488 76.2 2.0439 76.2 2.6C76.2 3.12682 76.0244 3.56584 75.6732 3.91706C75.322 4.25365 74.8976 4.42194 74.4 4.42194Z" fill="#ABC7AC"/>
<path d="M82 4.42194C81.5025 4.42194 81.0781 4.25365 80.7269 3.91706C80.3756 3.56584 80.2 3.12682 80.2 2.6C80.2 2.0439 80.3756 1.60488 80.7269 1.28292C81.0781 0.946341 81.5025 0.778048 82 0.778048C82.4976 0.778048 82.922 0.946341 83.2732 1.28292C83.6244 1.60488 83.8 2.0439 83.8 2.6C83.8 3.12682 83.6244 3.56584 83.2732 3.91706C82.922 4.25365 82.4976 4.42194 82 4.42194Z" fill="#ABC7AC"/>
<path d="M89.6 4.42194C89.1025 4.42194 88.6781 4.25365 88.3269 3.91706C87.9756 3.56584 87.8 3.12682 87.8 2.6C87.8 2.0439 87.9756 1.60488 88.3269 1.28292C88.6781 0.946341 89.1025 0.778048 89.6 0.778048C90.0976 0.778048 90.522 0.946341 90.8732 1.28292C91.2244 1.60488 91.4 2.0439 91.4 2.6C91.4 3.12682 91.2244 3.56584 90.8732 3.91706C90.522 4.25365 90.0976 4.42194 89.6 4.42194Z" fill="#ABC7AC"/>
<path d="M97.1 4.32072C96.6301 4.32072 96.2293 4.16178 95.8976 3.84389C95.5659 3.51219 95.4 3.09755 95.4 2.6C95.4 2.07479 95.5659 1.66016 95.8976 1.3561C96.2293 1.03821 96.6301 0.879267 97.1 0.879267C97.5699 0.879267 97.9708 1.03821 98.3025 1.3561C98.6342 1.66016 98.8 2.07479 98.8 2.6C98.8 3.09755 98.6342 3.51219 98.3025 3.84389C97.9708 4.16178 97.5699 4.32072 97.1 4.32072Z" fill="#ABC7AC"/>
<path d="M104.5 4.32072C104.03 4.32072 103.629 4.16178 103.298 3.84389C102.966 3.51219 102.8 3.09755 102.8 2.6C102.8 2.07479 102.966 1.66016 103.298 1.3561C103.629 1.03821 104.03 0.879267 104.5 0.879267C104.97 0.879267 105.371 1.03821 105.702 1.3561C106.034 1.66016 106.2 2.07479 106.2 2.6C106.2 3.09755 106.034 3.51219 105.702 3.84389C105.371 4.16178 104.97 4.32072 104.5 4.32072Z" fill="#ABC7AC"/>
<path d="M111.9 4.32072C111.43 4.32072 111.029 4.16178 110.698 3.84389C110.366 3.51219 110.2 3.09755 110.2 2.6C110.2 2.07479 110.366 1.66016 110.698 1.3561C111.029 1.03821 111.43 0.879267 111.9 0.879267C112.37 0.879267 112.771 1.03821 113.102 1.3561C113.434 1.66016 113.6 2.07479 113.6 2.6C113.6 3.09755 113.434 3.51219 113.102 3.84389C112.771 4.16178 112.37 4.32072 111.9 4.32072Z" fill="#ABC7AC"/>
<path d="M119.1 4.09999C118.685 4.09999 118.332 3.96144 118.039 3.68433C117.746 3.39517 117.6 3.03373 117.6 2.6C117.6 2.14216 117.746 1.78072 118.039 1.51566C118.332 1.23855 118.685 1.09999 119.1 1.09999C119.515 1.09999 119.868 1.23855 120.161 1.51566C120.454 1.78072 120.6 2.14216 120.6 2.6C120.6 3.03373 120.454 3.39517 120.161 3.68433C119.868 3.96144 119.515 4.09999 119.1 4.09999Z" fill="#ABC7AC"/>
<path d="M126.1 4.09999C125.685 4.09999 125.332 3.96144 125.039 3.68433C124.746 3.39517 124.6 3.03373 124.6 2.6C124.6 2.14216 124.746 1.78072 125.039 1.51566C125.332 1.23855 125.685 1.09999 126.1 1.09999C126.515 1.09999 126.868 1.23855 127.161 1.51566C127.454 1.78072 127.6 2.14216 127.6 2.6C127.6 3.03373 127.454 3.39517 127.161 3.68433C126.868 3.96144 126.515 4.09999 126.1 4.09999Z" fill="#ABC7AC"/>
<path d="M133.1 4.09999C132.685 4.09999 132.332 3.96144 132.039 3.68433C131.746 3.39517 131.6 3.03373 131.6 2.6C131.6 2.14216 131.746 1.78072 132.039 1.51566C132.332 1.23855 132.685 1.09999 133.1 1.09999C133.515 1.09999 133.868 1.23855 134.161 1.51566C134.454 1.78072 134.6 2.14216 134.6 2.6C134.6 3.03373 134.454 3.39517 134.161 3.68433C133.868 3.96144 133.515 4.09999 133.1 4.09999Z" fill="#ABC7AC"/>
<path d="M139.912 3.92799C139.549 3.92799 139.24 3.80533 138.984 3.55999C138.728 3.30399 138.6 2.98399 138.6 2.59999C138.6 2.19466 138.728 1.87466 138.984 1.63999C139.24 1.39466 139.549 1.27199 139.912 1.27199C140.275 1.27199 140.584 1.39466 140.84 1.63999C141.096 1.87466 141.224 2.19466 141.224 2.59999C141.224 2.98399 141.096 3.30399 140.84 3.55999C140.584 3.80533 140.275 3.92799 139.912 3.92799Z" fill="#ABC7AC"/>
<path d="M146.536 3.92799C146.173 3.92799 145.864 3.80533 145.608 3.55999C145.352 3.30399 145.224 2.98399 145.224 2.59999C145.224 2.19466 145.352 1.87466 145.608 1.63999C145.864 1.39466 146.173 1.27199 146.536 1.27199C146.899 1.27199 147.208 1.39466 147.464 1.63999C147.72 1.87466 147.848 2.19466 147.848 2.59999C147.848 2.98399 147.72 3.30399 147.464 3.55999C147.208 3.80533 146.899 3.92799 146.536 3.92799Z" fill="#ABC7AC"/>
<path d="M153.16 3.92799C152.797 3.92799 152.488 3.80533 152.232 3.55999C151.976 3.30399 151.848 2.98399 151.848 2.59999C151.848 2.19466 151.976 1.87466 152.232 1.63999C152.488 1.39466 152.797 1.27199 153.16 1.27199C153.523 1.27199 153.832 1.39466 154.088 1.63999C154.344 1.87466 154.472 2.19466 154.472 2.59999C154.472 2.98399 154.344 3.30399 154.088 3.55999C153.832 3.80533 153.523 3.92799 153.16 3.92799Z" fill="#ABC7AC"/>
</svg>
