<svg width="24" height="24" viewBox="0 0 24 24" fill="none" xmlns="http://www.w3.org/2000/svg">
<path d="M20.3042 3.65764C19.8461 3.13212 19.3021 2.71524 18.7034 2.43082C18.1047 2.14639 17.463 2 16.8149 2C16.1668 2 15.5251 2.14639 14.9264 2.43082C14.3277 2.71524 13.7837 3.13212 13.3256 3.65764L12.3748 4.74776L11.4239 3.65764C10.4985 2.59662 9.24338 2.00055 7.93463 2.00055C6.62589 2.00055 5.37074 2.59662 4.44532 3.65764C3.5199 4.71865 3 6.15769 3 7.6582C3 9.1587 3.5199 10.5977 4.44532 11.6588L5.39614 12.7489L12.3748 20.75L19.3534 12.7489L20.3042 11.6588C20.7626 11.1335 21.1262 10.5098 21.3742 9.82339C21.6223 9.13696 21.75 8.40122 21.75 7.6582C21.75 6.91517 21.6223 6.17943 21.3742 5.493C21.1262 4.80657 20.7626 4.18291 20.3042 3.65764V3.65764Z" fill="#C0C8D2"/>
</svg>
