<svg width="161" height="48" viewBox="0 0 161 48" fill="none" xmlns="http://www.w3.org/2000/svg">
<path d="M97.5449 19.1602C98.9636 19.1602 100.242 19.4776 101.381 20.1123C102.519 20.747 103.406 21.6338 104.041 22.7725C104.694 23.911 105.02 25.1987 105.021 26.6357C105.021 28.0731 104.694 29.3613 104.041 30.5C103.406 31.6387 102.52 32.5351 101.381 33.1885C100.242 33.823 98.9635 34.1396 97.5449 34.1396C96.1264 34.1396 94.8476 33.8231 93.709 33.1885C92.5703 32.5351 91.6738 31.6387 91.0205 30.5C90.3672 29.3614 90.041 28.073 90.041 26.6357C90.0411 25.1987 90.3674 23.9109 91.0205 22.7725C91.6738 21.6338 92.5704 20.747 93.709 20.1123C94.8476 19.4776 96.1263 19.1602 97.5449 19.1602ZM122.52 34H120.615V31.0879C120.018 32.0772 119.225 32.8338 118.235 33.3564C117.265 33.879 116.163 34.1396 114.932 34.1396C113.55 34.1396 112.3 33.823 111.18 33.1885C110.06 32.5539 109.183 31.6668 108.548 30.5283C107.913 29.3897 107.596 28.0917 107.596 26.6357C107.596 25.1798 107.913 23.8827 108.548 22.7441C109.183 21.6055 110.06 20.7283 111.18 20.1123C112.3 19.4776 113.55 19.1602 114.932 19.1602C116.126 19.1602 117.199 19.4121 118.151 19.916C119.122 20.4013 119.915 21.1203 120.531 22.0723V13.2236H122.52V34ZM133.908 19.1602C135.103 19.1602 136.176 19.4121 137.128 19.916C138.099 20.4013 138.892 21.1203 139.508 22.0723V19.2725H141.496V34H139.592V31.0879C138.994 32.0772 138.201 32.8338 137.212 33.3564C136.241 33.879 135.14 34.1396 133.908 34.1396C132.527 34.1396 131.276 33.823 130.156 33.1885C129.036 32.5539 128.159 31.6668 127.524 30.5283C126.89 29.3897 126.572 28.0917 126.572 26.6357C126.572 25.1798 126.89 23.8827 127.524 22.7441C128.159 21.6055 129.036 20.7283 130.156 20.1123C131.276 19.4776 132.527 19.1602 133.908 19.1602ZM153.053 19.1602C154.471 19.1602 155.75 19.4776 156.889 20.1123C158.027 20.747 158.914 21.6338 159.549 22.7725C160.202 23.911 160.528 25.1987 160.528 26.6357C160.528 28.0731 160.202 29.3613 159.549 30.5C158.914 31.6387 158.027 32.5351 156.889 33.1885C155.75 33.823 154.471 34.1396 153.053 34.1396C151.634 34.1396 150.355 33.8231 149.217 33.1885C148.078 32.5351 147.182 31.6387 146.528 30.5C145.875 29.3614 145.549 28.073 145.549 26.6357C145.549 25.1987 145.875 23.9109 146.528 22.7725C147.182 21.6338 148.078 20.747 149.217 20.1123C150.355 19.4776 151.634 19.1602 153.053 19.1602ZM70.4395 16.1924H59.0713V23.1641H69.208V24.9277H59.0713V32.208H70.8594V34H57V14.4004H70.4395V16.1924ZM77.2979 27.3076L86.0898 19.2725H88.5537L82.2539 25.292L89.1416 34H86.7061L80.7705 26.6084L77.2979 29.7998V34H75.3105V13.2236H77.2979V27.3076ZM97.5449 20.8965C96.4996 20.8965 95.5568 21.1387 94.7168 21.624C93.8956 22.0906 93.2421 22.7625 92.7568 23.6396C92.2902 24.5169 92.0567 25.5158 92.0566 26.6357C92.0566 27.7557 92.2902 28.7545 92.7568 29.6318C93.2421 30.5091 93.8956 31.1905 94.7168 31.6758C95.5568 32.1424 96.4996 32.376 97.5449 32.376C98.5902 32.376 99.5234 32.1424 100.345 31.6758C101.185 31.1904 101.838 30.5092 102.305 29.6318C102.771 28.7545 103.005 27.7557 103.005 26.6357C103.005 25.5158 102.771 24.5169 102.305 23.6396C101.838 22.7625 101.185 22.0906 100.345 21.624C99.5234 21.1387 98.5902 20.8965 97.5449 20.8965ZM115.1 20.8965C114.054 20.8965 113.111 21.1387 112.271 21.624C111.45 22.0906 110.797 22.7625 110.312 23.6396C109.845 24.5169 109.611 25.5158 109.611 26.6357C109.611 27.7557 109.845 28.7545 110.312 29.6318C110.797 30.5091 111.45 31.1905 112.271 31.6758C113.111 32.1424 114.054 32.376 115.1 32.376C116.126 32.376 117.051 32.1424 117.872 31.6758C118.712 31.1905 119.365 30.509 119.832 29.6318C120.317 28.7546 120.56 27.7556 120.56 26.6357C120.56 25.5158 120.317 24.5169 119.832 23.6396C119.365 22.7625 118.712 22.0907 117.872 21.624C117.051 21.1387 116.126 20.8965 115.1 20.8965ZM134.076 20.8965C133.031 20.8965 132.088 21.1387 131.248 21.624C130.427 22.0906 129.773 22.7625 129.288 23.6396C128.821 24.5169 128.588 25.5158 128.588 26.6357C128.588 27.7557 128.821 28.7545 129.288 29.6318C129.773 30.5091 130.427 31.1905 131.248 31.6758C132.088 32.1424 133.031 32.376 134.076 32.376C135.103 32.376 136.027 32.1424 136.849 31.6758C137.688 31.1905 138.342 30.509 138.809 29.6318C139.294 28.7546 139.536 27.7556 139.536 26.6357C139.536 25.5158 139.294 24.5169 138.809 23.6396C138.342 22.7625 137.688 22.0907 136.849 21.624C136.027 21.1387 135.103 20.8965 134.076 20.8965ZM153.053 20.8965C152.007 20.8965 151.065 21.1387 150.225 21.624C149.403 22.0906 148.75 22.7625 148.265 23.6396C147.798 24.5169 147.564 25.5158 147.564 26.6357C147.564 27.7557 147.798 28.7545 148.265 29.6318C148.75 30.5091 149.403 31.1905 150.225 31.6758C151.065 32.1424 152.007 32.376 153.053 32.376C154.098 32.376 155.031 32.1424 155.853 31.6758C156.693 31.1904 157.346 30.5092 157.812 29.6318C158.279 28.7545 158.513 27.7557 158.513 26.6357C158.513 25.5158 158.279 24.5169 157.812 23.6396C157.346 22.7625 156.692 22.0906 155.853 21.624C155.031 21.1387 154.098 20.8965 153.053 20.8965Z" fill="white"/>
<path fill-rule="evenodd" clip-rule="evenodd" d="M23.662 39.8109C23.6265 36.314 21.5198 32.3087 17.6166 29.6764C13.6629 27.0101 8.23943 25.5039 2.53397 25.571C1.7895 25.5798 1.1794 24.9372 1.17126 24.1359C1.16312 23.3345 1.76003 22.6778 2.50449 22.669C5.3212 22.6359 8.10016 22.2195 10.6799 21.4487C13.2608 20.6774 15.5758 19.5713 17.5001 18.2096C19.4254 16.8471 20.9017 15.2704 21.8829 13.5937C22.8606 11.9232 23.3304 10.184 23.313 8.46747C23.3049 7.6661 23.9018 7.00936 24.6462 7.0006C25.3907 6.99184 26.0008 7.63437 26.0089 8.43574C26.0326 10.7655 25.3896 13.0466 24.1641 15.1406C22.9421 17.2286 21.1679 19.0872 18.9811 20.6347C16.9921 22.0422 14.6804 23.1796 12.1621 24.0065C14.6816 24.7693 17.018 25.848 19.048 27.217C23.5669 30.2646 26.3105 35.1042 26.358 39.7792C26.3661 40.5805 25.7692 41.2373 25.0247 41.246C24.2803 41.2548 23.6702 40.6123 23.662 39.8109Z" fill="#8FAF95" stroke="#1C4233" stroke-linecap="round" stroke-linejoin="round"/>
<path d="M40.0556 1.06641C40.6029 1.25104 40.9997 1.80124 40.9999 2.45117C40.9999 2.46631 40.9999 2.48187 40.9999 2.49707C41 3.11544 41 3.78438 40.9345 4.4043C40.8661 5.05137 40.7175 5.75482 40.3535 6.4082C39.5722 7.80992 38.128 8.44673 36.162 8.68164C36.1413 8.68412 36.1204 8.68606 36.0995 8.6875L17.2499 9.99121C17.226 9.99287 17.2016 9.99386 17.1777 9.99414C13.7395 10.0343 10.457 11.5432 8.05267 14.1885C7.41711 14.8878 6.85682 15.6515 6.37689 16.4648C7.90458 17.7928 10.2064 18.7089 13.413 18.709H21.332C21.3504 18.7084 21.3759 18.7077 21.4081 18.707C21.4732 18.7058 21.5662 18.7039 21.6835 18.7041C21.9184 18.7046 22.2537 18.7111 22.6679 18.7324C23.4947 18.775 24.6459 18.879 25.9521 19.127C28.5333 19.617 31.8713 20.6958 34.4687 23.1211L35.5615 24.1416L34.538 25.2432C31.8583 28.1277 28.5173 29.4175 25.9189 29.9961C24.6118 30.2871 23.4667 30.4037 22.6445 30.4482C22.2327 30.4705 21.8994 30.4753 21.665 30.4736C21.5477 30.4728 21.4545 30.47 21.3886 30.4678C21.359 30.4668 21.3348 30.4657 21.3163 30.4648H13.413C10.4336 30.4649 8.25261 31.1904 6.76263 32.2207C7.14966 32.8051 7.57959 33.3604 8.0517 33.8799C10.4563 36.5255 13.7385 38.0346 17.1767 38.0752C17.2007 38.0755 17.225 38.0765 17.249 38.0781L36.0986 39.3838C36.1193 39.3852 36.1404 39.3872 36.1611 39.3896C38.11 39.6228 39.5579 40.2335 40.3456 41.6152C40.7149 42.263 40.8656 42.9619 40.9345 43.6045C41.0004 44.2188 41 44.8846 40.9999 45.502V47H38.3036V46.999H13.413C5.99694 46.9989 1.47791 42.4877 1.3515 37.3193C1.30174 35.2837 1.96344 33.2823 3.29877 31.6309C2.58356 30.0838 2.09127 28.423 1.84369 26.7061C1.70897 25.8691 1.63591 25.0144 1.65912 24.1768C1.65887 24.0967 1.65831 24.0167 1.65912 23.9365C1.65938 23.9104 1.66062 23.8838 1.66107 23.8574C1.6705 21.9063 1.99411 19.9904 2.60248 18.1885C2.70734 17.835 2.81758 17.504 2.9306 17.209C2.96662 17.115 3.00754 17.0221 3.04681 16.9297C1.87978 15.2804 1.27401 13.3284 1.28412 11.2979C1.31119 5.87779 5.72328 1.00016 13.413 1H40.0556V1.06641ZM4.8183 34.2744C4.26709 35.2152 4.02226 36.2394 4.04681 37.2432C4.12266 40.3418 6.94788 44.0975 13.413 44.0977H38.2685C38.2641 44.0431 38.2614 43.9897 38.2558 43.9375C38.2109 43.519 38.1335 43.2832 38.0478 43.1328C37.9261 42.9196 37.5574 42.482 35.8935 42.2783L17.1103 40.9766C12.9705 40.9173 9.01999 39.0965 6.12396 35.9102C5.65388 35.393 5.21887 34.8458 4.8183 34.2744ZM5.1601 19.1064C5.08274 19.3696 5.00579 19.6602 4.9306 19.9707C4.6124 21.285 4.37969 22.7893 4.35736 23.8809C4.35704 23.9539 4.35661 24.0274 4.35736 24.1006C4.35762 24.126 4.35737 24.1514 4.35638 24.1768C4.35506 24.2108 4.35532 24.2451 4.35443 24.2793C4.36149 24.9482 4.41423 25.6118 4.50873 26.2656C4.70844 27.4734 5.07376 28.6744 5.46185 29.6748C7.45902 28.3458 10.126 27.5635 13.413 27.5635H21.3828L21.4169 27.5654H21.4257L21.4726 27.5674C21.5173 27.5689 21.5884 27.5706 21.6826 27.5713C21.871 27.5726 22.1527 27.5691 22.5087 27.5498C23.2228 27.5112 24.2274 27.4084 25.373 27.1533C27.2771 26.7293 29.5016 25.9001 31.4423 24.3086C29.5851 23.0396 27.4006 22.3494 25.4833 21.9854C24.3128 21.7631 23.2784 21.6689 22.539 21.6309C22.1701 21.6119 21.8763 21.6068 21.6786 21.6064C21.58 21.6063 21.505 21.6075 21.457 21.6084L21.4052 21.6094L21.3954 21.6104H21.3945L21.371 21.6113H13.413C9.96479 21.6113 7.18505 20.6492 5.1601 19.1064ZM13.413 3.90234C6.81707 3.90249 3.99756 7.87933 3.98041 11.3135C3.97583 12.2365 4.17525 13.1998 4.59857 14.1152C5.05797 13.4265 5.56828 12.7717 6.12592 12.1582C9.02166 8.97241 12.9716 7.15151 17.1113 7.09277L35.8945 5.79395C37.5423 5.59215 37.9142 5.14428 38.0419 4.91504C38.1325 4.75233 38.2106 4.50331 38.2558 4.07617C38.2618 4.01963 38.2649 3.96144 38.2695 3.90234H13.413Z" fill="white"/>
<path d="M40.0556 1.06641H39.5556V1.42542L39.8958 1.54017L40.0556 1.06641ZM40.9999 2.45117L41.4999 2.45112L41.4999 2.451L40.9999 2.45117ZM40.9999 2.49707L41.4999 2.49699L41.4999 2.49699L40.9999 2.49707ZM40.9345 4.4043L41.4317 4.45687L41.4317 4.45685L40.9345 4.4043ZM40.3535 6.4082L40.7902 6.65161L40.7902 6.65159L40.3535 6.4082ZM36.162 8.68164L36.1027 8.18517L36.1027 8.18517L36.162 8.68164ZM36.0995 8.6875L36.0651 8.18869L36.065 8.18869L36.0995 8.6875ZM17.2499 9.99121L17.2844 10.49L17.2844 10.49L17.2499 9.99121ZM17.1777 9.99414L17.1718 9.49417L17.1718 9.49417L17.1777 9.99414ZM8.05267 14.1885L7.68267 13.8522L7.68266 13.8522L8.05267 14.1885ZM6.37689 16.4648L5.94627 16.2108L5.73478 16.5692L6.04887 16.8422L6.37689 16.4648ZM13.413 18.709L13.413 19.209H13.413V18.709ZM21.332 18.709V19.209H21.3393L21.3467 19.2088L21.332 18.709ZM21.4081 18.707L21.3984 18.2071L21.3984 18.2071L21.4081 18.707ZM21.6835 18.7041L21.6845 18.2041L21.6845 18.2041L21.6835 18.7041ZM22.6679 18.7324L22.6936 18.2331L22.6936 18.2331L22.6679 18.7324ZM25.9521 19.127L26.0454 18.6357L26.0453 18.6357L25.9521 19.127ZM34.4687 23.1211L34.81 22.7557L34.8099 22.7556L34.4687 23.1211ZM35.5615 24.1416L35.9278 24.4819L36.2672 24.1166L35.9027 23.7762L35.5615 24.1416ZM34.538 25.2432L34.1717 24.9028L34.1717 24.9029L34.538 25.2432ZM25.9189 29.9961L26.0276 30.4841L26.0276 30.4841L25.9189 29.9961ZM22.6445 30.4482L22.6715 30.9475L22.6715 30.9475L22.6445 30.4482ZM21.665 30.4736L21.6685 29.9736L21.6685 29.9736L21.665 30.4736ZM21.3886 30.4678L21.4054 29.9681L21.4054 29.9681L21.3886 30.4678ZM21.3163 30.4648L21.3387 29.9653L21.3275 29.9648H21.3163V30.4648ZM13.413 30.4648L13.413 29.9648L13.413 29.9648L13.413 30.4648ZM6.76263 32.2207L6.47826 31.8094L6.07517 32.0882L6.34576 32.4968L6.76263 32.2207ZM8.0517 33.8799L7.68169 34.2162L7.68169 34.2162L8.0517 33.8799ZM17.1767 38.0752L17.1708 38.5752L17.1708 38.5752L17.1767 38.0752ZM17.249 38.0781L17.2835 37.5793L17.2835 37.5793L17.249 38.0781ZM36.0986 39.3838L36.1331 38.885L36.1331 38.885L36.0986 39.3838ZM36.1611 39.3896L36.2205 38.8932L36.2204 38.8932L36.1611 39.3896ZM40.3456 41.6152L40.78 41.3676L40.78 41.3676L40.3456 41.6152ZM40.9345 43.6045L41.4317 43.5512L41.4317 43.5512L40.9345 43.6045ZM40.9999 45.502L40.4999 45.5019V45.502H40.9999ZM40.9999 47V47.5H41.4999V47H40.9999ZM38.3036 47H37.8036V47.5H38.3036V47ZM38.3036 46.999H38.8036V46.499H38.3036V46.999ZM13.413 46.999L13.413 47.499H13.413V46.999ZM1.3515 37.3193L0.851651 37.3316L0.851651 37.3316L1.3515 37.3193ZM3.29877 31.6309L3.68757 31.9452L3.88313 31.7034L3.75262 31.4211L3.29877 31.6309ZM1.84369 26.7061L2.33864 26.6347L2.33733 26.6266L1.84369 26.7061ZM1.65912 24.1768L2.15893 24.1906L2.15914 24.1829L2.15912 24.1752L1.65912 24.1768ZM1.65912 23.9365L1.15914 23.9314L1.15914 23.9315L1.65912 23.9365ZM1.66107 23.8574L2.16104 23.866L2.16107 23.8598L1.66107 23.8574ZM2.60248 18.1885L3.07621 18.3484L3.07918 18.3396L3.08183 18.3307L2.60248 18.1885ZM2.9306 17.209L2.46371 17.0301L2.4637 17.0301L2.9306 17.209ZM3.04681 16.9297L3.50698 17.1252L3.61607 16.8686L3.45497 16.6409L3.04681 16.9297ZM1.28412 11.2979L0.784125 11.2954L0.784125 11.2954L1.28412 11.2979ZM13.413 1L13.413 0.5L13.413 0.5L13.413 1ZM40.0556 1H40.5556V0.5H40.0556V1ZM4.8183 34.2744L5.22771 33.9874L4.78063 33.3497L4.3869 34.0216L4.8183 34.2744ZM4.04681 37.2432L3.54696 37.2554L3.54696 37.2554L4.04681 37.2432ZM13.413 44.0977L13.413 44.5977H13.413V44.0977ZM38.2685 44.0977V44.5977H38.8101L38.7669 44.0577L38.2685 44.0977ZM38.2558 43.9375L38.753 43.8842L38.753 43.8842L38.2558 43.9375ZM38.0478 43.1328L38.4822 42.8852L38.4821 42.885L38.0478 43.1328ZM35.8935 42.2783L35.9543 41.782L35.9412 41.7804L35.9281 41.7795L35.8935 42.2783ZM17.1103 40.9766L17.1449 40.4778L17.1312 40.4768L17.1175 40.4766L17.1103 40.9766ZM6.12396 35.9102L6.49397 35.5739L6.49397 35.5739L6.12396 35.9102ZM5.1601 19.1064L5.4631 18.7087L4.88526 18.2685L4.68039 18.9654L5.1601 19.1064ZM4.9306 19.9707L4.44464 19.853L4.44464 19.853L4.9306 19.9707ZM4.35736 23.8809L3.8574 23.8706L3.85737 23.8787L4.35736 23.8809ZM4.35736 24.1006L4.85734 24.0956L4.85733 24.0955L4.35736 24.1006ZM4.35638 24.1768L4.85601 24.1962L4.85601 24.1962L4.35638 24.1768ZM4.35443 24.2793L3.8546 24.2663L3.85436 24.2755L3.85446 24.2846L4.35443 24.2793ZM4.50873 26.2656L4.01377 26.3372L4.01543 26.3472L4.50873 26.2656ZM5.46185 29.6748L4.9957 29.8556L5.22077 30.4358L5.73885 30.0911L5.46185 29.6748ZM13.413 27.5635L13.413 27.0635L13.413 27.0635L13.413 27.5635ZM21.3828 27.5635L21.4113 27.0643L21.397 27.0635H21.3828V27.5635ZM21.4169 27.5654L21.3884 28.0646L21.4027 28.0654H21.4169V27.5654ZM21.4257 27.5654L21.4465 27.0659L21.4361 27.0654H21.4257V27.5654ZM21.4726 27.5674L21.4518 28.067L21.4558 28.0671L21.4726 27.5674ZM21.6826 27.5713L21.6791 28.0713L21.6791 28.0713L21.6826 27.5713ZM22.5087 27.5498L22.5358 28.0491L22.5358 28.0491L22.5087 27.5498ZM25.373 27.1533L25.4817 27.6414L25.4817 27.6414L25.373 27.1533ZM31.4423 24.3086L31.7594 24.6952L32.2753 24.2722L31.7244 23.8958L31.4423 24.3086ZM25.4833 21.9854L25.5766 21.4941L25.5766 21.4941L25.4833 21.9854ZM22.539 21.6309L22.5647 21.1315L22.5647 21.1315L22.539 21.6309ZM21.6786 21.6064L21.6796 21.1064L21.6796 21.1064L21.6786 21.6064ZM21.457 21.6084L21.4664 22.1083L21.4667 22.1083L21.457 21.6084ZM21.4052 21.6094L21.3958 21.1095L21.3756 21.1098L21.3555 21.1119L21.4052 21.6094ZM21.3954 21.6104V22.1104H21.4204L21.4452 22.1079L21.3954 21.6104ZM21.3945 21.6104V21.1104H21.3841L21.3737 21.1108L21.3945 21.6104ZM21.371 21.6113V22.1113H21.3814L21.3918 22.1109L21.371 21.6113ZM13.413 21.6113L13.413 22.1113H13.413V21.6113ZM13.413 3.90234L13.413 3.40234L13.413 3.40234L13.413 3.90234ZM3.98041 11.3135L3.48041 11.311L3.48041 11.311L3.98041 11.3135ZM4.59857 14.1152L4.14475 14.3251L4.51933 15.1351L5.01453 14.3927L4.59857 14.1152ZM6.12592 12.1582L5.75592 11.8219L5.75591 11.8219L6.12592 12.1582ZM17.1113 7.09277L17.1184 7.59272L17.1321 7.59253L17.1458 7.59158L17.1113 7.09277ZM35.8945 5.79395L35.929 6.29275L35.9421 6.29184L35.9552 6.29024L35.8945 5.79395ZM38.0419 4.91504L38.4787 5.15845L38.4788 5.15832L38.0419 4.91504ZM38.2558 4.07617L38.753 4.12877L38.753 4.12874L38.2558 4.07617ZM38.2695 3.90234L38.768 3.94103L38.8098 3.40234H38.2695V3.90234ZM40.0556 1.06641L39.8958 1.54017C40.2269 1.65189 40.4998 2.00195 40.4999 2.45134L40.9999 2.45117L41.4999 2.451C41.4996 1.60053 40.9789 0.850187 40.2154 0.592639L40.0556 1.06641ZM40.9999 2.45117L40.4999 2.45122C40.4999 2.46585 40.4999 2.4822 40.4999 2.49715L40.9999 2.49707L41.4999 2.49699C41.4999 2.48154 41.4999 2.46678 41.4999 2.45112L40.9999 2.45117ZM40.9999 2.49707L40.4999 2.49715C40.5 3.12075 40.4995 3.76271 40.4373 4.35175L40.9345 4.4043L41.4317 4.45685C41.5005 3.80606 41.5 3.11014 41.4999 2.49699L40.9999 2.49707ZM40.9345 4.4043L40.4373 4.35172C40.3725 4.96444 40.2351 5.59347 39.9167 6.16482L40.3535 6.4082L40.7902 6.65159C41.2 5.91617 41.3597 5.13831 41.4317 4.45687L40.9345 4.4043ZM40.3535 6.4082L39.9167 6.16479C39.2503 7.36054 38.0035 7.95804 36.1027 8.18517L36.162 8.68164L36.2214 9.17811C38.2525 8.93541 39.8942 8.25931 40.7902 6.65161L40.3535 6.4082ZM36.162 8.68164L36.1027 8.18517C36.0908 8.1866 36.0781 8.18779 36.0651 8.18869L36.0995 8.6875L36.134 9.18631C36.1626 9.18433 36.1919 9.18163 36.2214 9.17811L36.162 8.68164ZM36.0995 8.6875L36.065 8.18869L17.2154 9.4924L17.2499 9.99121L17.2844 10.49L36.134 9.18631L36.0995 8.6875ZM17.2499 9.99121L17.2154 9.4924C17.2009 9.49341 17.1861 9.49401 17.1718 9.49417L17.1777 9.99414L17.1835 10.4941C17.2172 10.4937 17.2511 10.4923 17.2844 10.49L17.2499 9.99121ZM17.1777 9.99414L17.1718 9.49417C13.5887 9.53602 10.1762 11.1087 7.68267 13.8522L8.05267 14.1885L8.42268 14.5248C10.7378 11.9776 13.8903 10.5326 17.1835 10.4941L17.1777 9.99414ZM8.05267 14.1885L7.68266 13.8522C7.0236 14.5773 6.44313 15.3687 5.94627 16.2108L6.37689 16.4648L6.80752 16.7189C7.27052 15.9343 7.81062 15.1982 8.42269 14.5248L8.05267 14.1885ZM6.37689 16.4648L6.04887 16.8422C7.68372 18.2633 10.1092 19.2089 13.413 19.209L13.413 18.709L13.413 18.209C10.3037 18.2089 8.12544 17.3223 6.70492 16.0875L6.37689 16.4648ZM13.413 18.709V19.209H21.332V18.709V18.209H13.413V18.709ZM21.332 18.709L21.3467 19.2088C21.3655 19.2082 21.3885 19.2075 21.4179 19.2069L21.4081 18.707L21.3984 18.2071C21.3633 18.2078 21.3354 18.2087 21.3173 18.2092L21.332 18.709ZM21.4081 18.707L21.4179 19.2069C21.4829 19.2057 21.5711 19.2039 21.6826 19.2041L21.6835 18.7041L21.6845 18.2041C21.5613 18.2039 21.4636 18.2059 21.3984 18.2071L21.4081 18.707ZM21.6835 18.7041L21.6826 19.2041C21.9093 19.2045 22.2364 19.2109 22.6422 19.2318L22.6679 18.7324L22.6936 18.2331C22.271 18.2113 21.9274 18.2046 21.6845 18.2041L21.6835 18.7041ZM22.6679 18.7324L22.6422 19.2318C23.4517 19.2734 24.5797 19.3753 25.8588 19.6182L25.9521 19.127L26.0453 18.6357C24.7122 18.3826 23.5377 18.2765 22.6936 18.2331L22.6679 18.7324ZM25.9521 19.127L25.8588 19.6182C28.3964 20.1 31.6284 21.1531 34.1274 23.4865L34.4687 23.1211L34.8099 22.7556C32.1141 20.2385 28.6701 19.1341 26.0454 18.6357L25.9521 19.127ZM34.4687 23.1211L34.1274 23.4865L35.2202 24.507L35.5615 24.1416L35.9027 23.7762L34.81 22.7557L34.4687 23.1211ZM35.5615 24.1416L35.1952 23.8013L34.1717 24.9028L34.538 25.2432L34.9043 25.5835L35.9278 24.4819L35.5615 24.1416ZM34.538 25.2432L34.1717 24.9029C31.5839 27.6885 28.3488 28.9428 25.8102 29.508L25.9189 29.9961L26.0276 30.4841C28.6858 29.8922 32.1327 28.5669 34.9043 25.5835L34.538 25.2432ZM25.9189 29.9961L25.8102 29.508C24.5353 29.7919 23.4182 29.9056 22.6174 29.949L22.6445 30.4482L22.6715 30.9475C23.5152 30.9018 24.6883 30.7823 26.0276 30.4841L25.9189 29.9961ZM22.6445 30.4482L22.6174 29.949C22.2162 29.9707 21.8931 29.9752 21.6685 29.9736L21.665 30.4736L21.6615 30.9736C21.9057 30.9753 22.2491 30.9704 22.6715 30.9475L22.6445 30.4482ZM21.665 30.4736L21.6685 29.9736C21.5575 29.9729 21.4692 29.9702 21.4054 29.9681L21.3886 30.4678L21.3718 30.9675C21.4397 30.9698 21.5379 30.9728 21.6615 30.9736L21.665 30.4736ZM21.3886 30.4678L21.4054 29.9681C21.379 29.9672 21.3576 29.9662 21.3387 29.9653L21.3163 30.4648L21.294 30.9643C21.3121 30.9652 21.339 30.9664 21.3719 30.9675L21.3886 30.4678ZM21.3163 30.4648V29.9648H13.413V30.4648V30.9648H21.3163V30.4648ZM13.413 30.4648L13.413 29.9648C10.3529 29.9649 8.06747 30.7105 6.47826 31.8094L6.76263 32.2207L7.04701 32.632C8.43774 31.6703 10.5143 30.9649 13.413 30.9648L13.413 30.4648ZM6.76263 32.2207L6.34576 32.4968C6.74639 33.1017 7.1919 33.6773 7.68169 34.2162L8.0517 33.8799L8.42171 33.5436C7.96728 33.0436 7.55293 32.5085 7.17951 31.9446L6.76263 32.2207ZM8.0517 33.8799L7.68169 34.2162C10.1755 36.9599 13.5877 38.5329 17.1708 38.5752L17.1767 38.0752L17.1826 37.5752C13.8894 37.5364 10.7371 36.0911 8.4217 33.5436L8.0517 33.8799ZM17.1767 38.0752L17.1708 38.5752C17.1852 38.5753 17.2 38.5759 17.2144 38.5769L17.249 38.0781L17.2835 37.5793C17.2501 37.577 17.2162 37.5756 17.1826 37.5752L17.1767 38.0752ZM17.249 38.0781L17.2144 38.5769L36.064 39.8826L36.0986 39.3838L36.1331 38.885L17.2835 37.5793L17.249 38.0781ZM36.0986 39.3838L36.064 39.8826C36.0771 39.8835 36.0899 39.8847 36.1017 39.8861L36.1611 39.3896L36.2204 38.8932C36.1909 38.8897 36.1616 38.887 36.1331 38.885L36.0986 39.3838ZM36.1611 39.3896L36.1017 39.8861C37.992 40.1122 39.2408 40.6869 39.9113 41.8629L40.3456 41.6152L40.78 41.3676C39.875 39.7801 38.228 39.1333 36.2205 38.8932L36.1611 39.3896ZM40.3456 41.6152L39.9112 41.8628C40.2331 42.4276 40.3723 43.0507 40.4374 43.6578L40.9345 43.6045L41.4317 43.5512C41.359 42.8731 41.1966 42.0984 40.78 41.3676L40.3456 41.6152ZM40.9345 43.6045L40.4374 43.6578C40.4998 44.2407 40.5 44.8789 40.4999 45.5019L40.9999 45.502L41.4999 45.502C41.5 44.8904 41.5009 44.1969 41.4317 43.5512L40.9345 43.6045ZM40.9999 45.502H40.4999V47H40.9999H41.4999V45.502H40.9999ZM40.9999 47V46.5H38.3036V47V47.5H40.9999V47ZM38.3036 47H38.8036V46.999H38.3036H37.8036V47H38.3036ZM38.3036 46.999V46.499H13.413V46.999V47.499H38.3036V46.999ZM13.413 46.999L13.413 46.499C6.20553 46.4989 1.96969 42.1454 1.85135 37.3071L1.3515 37.3193L0.851651 37.3316C0.986135 42.8299 5.78836 47.4989 13.413 47.499L13.413 46.999ZM1.3515 37.3193L1.85135 37.3071C1.80448 35.3896 2.42713 33.5041 3.68757 31.9452L3.29877 31.6309L2.90996 31.3165C1.49976 33.0606 0.799 35.1778 0.851651 37.3316L1.3515 37.3193ZM3.29877 31.6309L3.75262 31.4211C3.05789 29.9182 2.5793 28.3042 2.33857 26.6347L1.84369 26.7061L1.34881 26.7774C1.60324 28.5419 2.10924 30.2493 2.84492 31.8407L3.29877 31.6309ZM1.84369 26.7061L2.33733 26.6266C2.20645 25.8135 2.13676 24.9907 2.15893 24.1906L1.65912 24.1768L1.15931 24.1629C1.13507 25.0382 1.21148 25.9247 1.35004 26.7855L1.84369 26.7061ZM1.65912 24.1768L2.15912 24.1752C2.15886 24.0925 2.15832 24.0174 2.15909 23.9416L1.65912 23.9365L1.15914 23.9315C1.15829 24.0159 1.15888 24.101 1.15912 24.1783L1.65912 24.1768ZM1.65912 23.9365L2.15909 23.9416C2.1595 23.9015 2.15993 23.9284 2.161 23.866L1.66107 23.8574L1.16114 23.8489C1.16099 23.858 1.16069 23.8673 1.16025 23.882C1.15986 23.8952 1.15933 23.9128 1.15914 23.9314L1.65912 23.9365ZM1.66107 23.8574L2.16107 23.8598C2.17024 21.9623 2.48497 20.0996 3.07621 18.3484L2.60248 18.1885L2.12875 18.0285C1.50326 19.8812 1.17077 21.8503 1.16108 23.855L1.66107 23.8574ZM2.60248 18.1885L3.08183 18.3307C3.18389 17.9866 3.29008 17.6682 3.3975 17.3879L2.9306 17.209L2.4637 17.0301C2.34508 17.3397 2.23079 17.6833 2.12312 18.0463L2.60248 18.1885ZM2.9306 17.209L3.3975 17.3879C3.42927 17.305 3.46422 17.2259 3.50698 17.1252L3.04681 16.9297L2.58664 16.7341C2.55085 16.8183 2.50397 16.925 2.46371 17.0301L2.9306 17.209ZM3.04681 16.9297L3.45497 16.6409C2.34927 15.0783 1.77452 13.2285 1.78411 11.3003L1.28412 11.2979L0.784125 11.2954C0.773508 13.4283 1.41028 15.4825 2.63866 17.2185L3.04681 16.9297ZM1.28412 11.2979L1.78411 11.3003C1.80962 6.19279 5.95956 1.50015 13.413 1.5L13.413 1L13.413 0.5C5.487 0.50016 0.812756 5.5628 0.784125 11.2954L1.28412 11.2979ZM13.413 1V1.5H40.0556V1V0.5H13.413V1ZM40.0556 1H39.5556V1.06641H40.0556H40.5556V1H40.0556ZM4.8183 34.2744L4.3869 34.0216C3.78744 35.0447 3.5202 36.1611 3.54696 37.2554L4.04681 37.2432L4.54666 37.2309C4.52433 36.3176 4.74675 35.3856 5.2497 34.5272L4.8183 34.2744ZM4.04681 37.2432L3.54696 37.2554C3.63072 40.6768 6.73112 44.5975 13.413 44.5977L13.413 44.0977L13.413 43.5977C7.16464 43.5975 4.61461 40.0067 4.54666 37.2309L4.04681 37.2432ZM13.413 44.0977V44.5977H38.2685V44.0977V43.5977H13.413V44.0977ZM38.2685 44.0977L38.7669 44.0577C38.7642 44.024 38.7593 43.9438 38.753 43.8842L38.2558 43.9375L37.7586 43.9908C37.7634 44.0356 37.7641 44.0622 37.7701 44.1376L38.2685 44.0977ZM38.2558 43.9375L38.753 43.8842C38.7043 43.4307 38.6154 43.1189 38.4822 42.8852L38.0478 43.1328L37.6134 43.3804C37.6516 43.4474 37.7175 43.6072 37.7586 43.9908L38.2558 43.9375ZM38.0478 43.1328L38.4821 42.885C38.2449 42.4694 37.6813 41.9935 35.9543 41.782L35.8935 42.2783L35.8327 42.7746C37.4335 42.9706 37.6073 43.3698 37.6135 43.3806L38.0478 43.1328ZM35.8935 42.2783L35.9281 41.7795L17.1449 40.4778L17.1103 40.9766L17.0757 41.4754L35.8589 42.7771L35.8935 42.2783ZM17.1103 40.9766L17.1175 40.4766C13.1221 40.4194 9.30101 38.6623 6.49397 35.5739L6.12396 35.9102L5.75396 36.2465C8.73896 39.5307 12.819 41.4151 17.1031 41.4765L17.1103 40.9766ZM6.12396 35.9102L6.49397 35.5739C6.03867 35.0729 5.61675 34.5423 5.22771 33.9874L4.8183 34.2744L4.40888 34.5614C4.821 35.1493 5.26909 35.713 5.75396 36.2465L6.12396 35.9102ZM5.1601 19.1064L4.68039 18.9654C4.60034 19.2378 4.52134 19.5363 4.44464 19.853L4.9306 19.9707L5.41656 20.0884C5.49023 19.7841 5.56513 19.5015 5.6398 19.2475L5.1601 19.1064ZM4.9306 19.9707L4.44464 19.853C4.12114 21.1892 3.88077 22.7314 3.85747 23.8706L4.35736 23.8809L4.85726 23.8911C4.87861 22.8473 5.10367 21.3807 5.41656 20.0884L4.9306 19.9707ZM4.35736 23.8809L3.85737 23.8787C3.85706 23.9503 3.85659 24.028 3.85739 24.1057L4.35736 24.1006L4.85733 24.0955C4.85663 24.0268 4.85703 23.9575 4.85736 23.883L4.35736 23.8809ZM4.35736 24.1006L3.85739 24.1056C3.85758 24.1245 3.85737 24.1416 3.85676 24.1574L4.35638 24.1768L4.85601 24.1962C4.85737 24.1612 4.85766 24.1275 4.85734 24.0956L4.35736 24.1006ZM4.35638 24.1768L3.85676 24.1573C3.85564 24.1863 3.85466 24.2639 3.8546 24.2663L4.35443 24.2793L4.85426 24.2923C4.85597 24.2263 4.85449 24.2353 4.85601 24.1962L4.35638 24.1768ZM4.35443 24.2793L3.85446 24.2846C3.86176 24.9762 3.91629 25.6619 4.01387 26.3371L4.50873 26.2656L5.00359 26.1941C4.91217 25.5616 4.86122 24.9201 4.8544 24.274L4.35443 24.2793ZM4.50873 26.2656L4.01543 26.3472C4.22195 27.5961 4.59813 28.8308 4.9957 29.8556L5.46185 29.6748L5.92801 29.494C5.54938 28.518 5.19494 27.3507 5.00203 26.1841L4.50873 26.2656ZM5.46185 29.6748L5.73885 30.0911C7.63872 28.8268 10.2046 28.0635 13.413 28.0635L13.413 27.5635L13.413 27.0635C10.0475 27.0635 7.27931 27.8648 5.18486 29.2585L5.46185 29.6748ZM13.413 27.5635V28.0635H21.3828V27.5635V27.0635H13.413V27.5635ZM21.3828 27.5635L21.3542 28.0627L21.3884 28.0646L21.4169 27.5654L21.4455 27.0662L21.4113 27.0643L21.3828 27.5635ZM21.4169 27.5654V28.0654H21.4257V27.5654V27.0654H21.4169V27.5654ZM21.4257 27.5654L21.4049 28.065L21.4518 28.0669L21.4726 27.5674L21.4934 27.0678L21.4465 27.0659L21.4257 27.5654ZM21.4726 27.5674L21.4558 28.0671C21.5051 28.0688 21.5806 28.0706 21.6791 28.0713L21.6826 27.5713L21.686 27.0713C21.5962 27.0707 21.5296 27.069 21.4894 27.0677L21.4726 27.5674ZM21.6826 27.5713L21.6791 28.0713C21.877 28.0727 22.1689 28.0689 22.5358 28.0491L22.5087 27.5498L22.4817 27.0505C22.1364 27.0692 21.8649 27.0725 21.686 27.0713L21.6826 27.5713ZM22.5087 27.5498L22.5358 28.0491C23.2716 28.0092 24.3041 27.9036 25.4817 27.6414L25.373 27.1533L25.2643 26.6653C24.1507 26.9132 23.1741 27.0131 22.4817 27.0505L22.5087 27.5498ZM25.373 27.1533L25.4817 27.6414C27.4363 27.2061 29.7405 26.3508 31.7594 24.6952L31.4423 24.3086L31.1253 23.922C29.2627 25.4494 27.1179 26.2525 25.2643 26.6653L25.373 27.1533ZM31.4423 24.3086L31.7244 23.8958C29.7904 22.5743 27.533 21.8655 25.5766 21.4941L25.4833 21.9854L25.3901 22.4766C27.2683 22.8332 29.3798 23.5049 31.1602 24.7214L31.4423 24.3086ZM25.4833 21.9854L25.5766 21.4941C24.3793 21.2668 23.3217 21.1705 22.5647 21.1315L22.539 21.6309L22.5133 22.1302C23.2351 22.1673 24.2463 22.2594 25.3901 22.4766L25.4833 21.9854ZM22.539 21.6309L22.5647 21.1315C22.1868 21.1121 21.8848 21.1068 21.6796 21.1064L21.6786 21.6064L21.6777 22.1064C21.8679 22.1068 22.1533 22.1117 22.5133 22.1302L22.539 21.6309ZM21.6786 21.6064L21.6796 21.1064C21.5763 21.1063 21.4975 21.1075 21.4472 21.1085L21.457 21.6084L21.4667 22.1083C21.5126 22.1074 21.5837 22.1063 21.6777 22.1064L21.6786 21.6064ZM21.457 21.6084L21.4475 21.1085L21.3958 21.1095L21.4052 21.6094L21.4146 22.1093L21.4664 22.1083L21.457 21.6084ZM21.4052 21.6094L21.3555 21.1119L21.3457 21.1128L21.3954 21.6104L21.4452 22.1079L21.455 22.1069L21.4052 21.6094ZM21.3954 21.6104V21.1104H21.3945V21.6104V22.1104H21.3954V21.6104ZM21.3945 21.6104L21.3737 21.1108L21.3502 21.1118L21.371 21.6113L21.3918 22.1109L21.4153 22.1099L21.3945 21.6104ZM21.371 21.6113V21.1113H13.413V21.6113V22.1113H21.371V21.6113ZM13.413 21.6113L13.413 21.1113C10.059 21.1113 7.38956 20.1764 5.4631 18.7087L5.1601 19.1064L4.85709 19.5042C6.98053 21.1219 9.87059 22.1113 13.413 22.1113L13.413 21.6113ZM13.413 3.90234L13.413 3.40234C10.0117 3.40242 7.52883 4.43 5.88926 5.95393C4.25366 7.47417 3.48966 9.4599 3.48041 11.311L3.98041 11.3135L4.4804 11.316C4.48831 9.73291 5.14263 8.01315 6.57007 6.68639C7.99353 5.36333 10.2184 4.40242 13.413 4.40234L13.413 3.90234ZM3.98041 11.3135L3.48041 11.311C3.47547 12.3072 3.69058 13.343 4.14475 14.3251L4.59857 14.1152L5.0524 13.9054C4.65992 13.0566 4.47618 12.1659 4.4804 11.316L3.98041 11.3135ZM4.59857 14.1152L5.01453 14.3927C5.46027 13.7244 5.95525 13.0894 6.49592 12.4945L6.12592 12.1582L5.75591 11.8219C5.18132 12.4541 4.65568 13.1285 4.18261 13.8378L4.59857 14.1152ZM6.12592 12.1582L6.49591 12.4945C9.3027 9.40658 13.1231 7.64941 17.1184 7.59272L17.1113 7.09277L17.1042 6.59282C12.82 6.65361 8.74062 8.53824 5.75592 11.8219L6.12592 12.1582ZM17.1113 7.09277L17.1458 7.59158L35.929 6.29275L35.8945 5.79395L35.86 5.29514L17.0768 6.59396L17.1113 7.09277ZM35.8945 5.79395L35.9552 6.29024C37.6736 6.0798 38.2383 5.58979 38.4787 5.15845L38.0419 4.91504L37.6052 4.67163C37.5901 4.69876 37.4109 5.1045 35.8337 5.29765L35.8945 5.79395ZM38.0419 4.91504L38.4788 5.15832C38.6153 4.91316 38.7043 4.58942 38.753 4.12877L38.2558 4.07617L37.7586 4.02357C37.7169 4.4172 37.6498 4.5915 37.6051 4.67176L38.0419 4.91504ZM38.2558 4.07617L38.753 4.12874C38.7599 4.06361 38.7647 3.98321 38.768 3.94103L38.2695 3.90234L37.771 3.86366C37.7651 3.93967 37.7636 3.97564 37.7586 4.0236L38.2558 4.07617ZM38.2695 3.90234V3.40234H13.413V3.90234V4.40234H38.2695V3.90234Z" fill="#1C4233"/>
</svg>
