<svg width="24" height="24" viewBox="0 0 24 24" fill="none" xmlns="http://www.w3.org/2000/svg">
<path fill-rule="evenodd" clip-rule="evenodd" d="M12.8342 7.3998L12.8342 4H11.1674V7.3998H12.8342ZM19.2095 9.09432L20.8763 6.26115L19.447 5.38656L17.7802 8.21972L19.2095 9.09432ZM3.12557 6.26115L4.79242 9.09432L6.22172 8.21972L4.55488 5.38656L3.12557 6.26115ZM3.86578 15.3335C5.70045 17.7327 8.6542 19.3001 11.9997 19.3001C15.3456 19.3001 18.2996 17.7324 20.1342 15.3328C18.9828 13.8272 17.3907 12.6491 15.5376 11.9805C15.7639 12.4835 15.8901 13.0431 15.8901 13.6328C15.8901 15.8234 14.1488 17.5992 12.0008 17.5992C9.85282 17.5992 8.11152 15.8234 8.11152 13.6328C8.11152 13.0429 8.23778 12.4831 8.46424 11.98C6.61029 12.6486 5.01748 13.8271 3.86578 15.3335ZM21.8538 14.8519C19.7473 11.7211 16.1136 9.66646 12.0006 9.66634H12.0002C7.88675 9.66634 4.25264 11.7213 2.14618 14.8527C1.95126 15.1425 1.95128 15.5247 2.14622 15.8144C4.25276 18.9454 7.8866 21 11.9997 21C16.1133 21 19.7474 18.945 21.8538 15.8136C22.0487 15.5239 22.0487 15.1417 21.8538 14.8519ZM12.0008 15.8993C13.2283 15.8993 14.2233 14.8845 14.2233 13.6328C14.2233 12.381 13.2283 11.3662 12.0008 11.3662C10.7734 11.3662 9.77837 12.381 9.77837 13.6328C9.77837 14.8845 10.7734 15.8993 12.0008 15.8993Z" fill="#11263C"/>
</svg>
